<?xml version="1.0" encoding="utf-8" standalone="no"?>
<!DOCTYPE svg PUBLIC "-//W3C//DTD SVG 1.1//EN"
  "http://www.w3.org/Graphics/SVG/1.1/DTD/svg11.dtd">
<svg xmlns:xlink="http://www.w3.org/1999/xlink" width="246.445312pt" height="210.141562pt" viewBox="0 0 246.445312 210.141562" xmlns="http://www.w3.org/2000/svg" version="1.1">
 <metadata>
  <rdf:RDF xmlns:dc="http://purl.org/dc/elements/1.1/" xmlns:cc="http://creativecommons.org/ns#" xmlns:rdf="http://www.w3.org/1999/02/22-rdf-syntax-ns#">
   <cc:Work>
    <dc:type rdf:resource="http://purl.org/dc/dcmitype/StillImage"/>
    <dc:date>2025-04-30T14:41:38.349592</dc:date>
    <dc:format>image/svg+xml</dc:format>
    <dc:creator>
     <cc:Agent>
      <dc:title>Matplotlib v3.9.2, https://matplotlib.org/</dc:title>
     </cc:Agent>
    </dc:creator>
   </cc:Work>
  </rdf:RDF>
 </metadata>
 <defs>
  <style type="text/css">*{stroke-linejoin: round; stroke-linecap: butt}</style>
 </defs>
 <g id="figure_1">
  <g id="patch_1">
   <path d="M 0 210.141562 
L 246.445312 210.141562 
L 246.445312 0 
L 0 0 
z
" style="fill: #ffffff"/>
  </g>
  <g id="axes_1">
   <g id="patch_2">
    <path d="M 41.445312 83.78 
L 239.245313 83.78 
L 239.245313 7.2 
L 41.445312 7.2 
z
" style="fill: #ffffff"/>
   </g>
   <g id="matplotlib.axis_1">
    <g id="xtick_1">
     <g id="line2d_1">
      <path d="M 41.445312 83.78 
L 41.445312 7.2 
" clip-path="url(#p07ed4db525)" style="fill: none; stroke: #ebebeb; stroke-width: 0.5; stroke-linecap: round"/>
     </g>
    </g>
    <g id="xtick_2">
     <g id="line2d_2">
      <path d="M 56.660697 83.78 
L 56.660697 7.2 
" clip-path="url(#p07ed4db525)" style="fill: none; stroke: #ebebeb; stroke-width: 0.5; stroke-linecap: round"/>
     </g>
    </g>
    <g id="xtick_3">
     <g id="line2d_3">
      <path d="M 71.876082 83.78 
L 71.876082 7.2 
" clip-path="url(#p07ed4db525)" style="fill: none; stroke: #ebebeb; stroke-width: 0.5; stroke-linecap: round"/>
     </g>
    </g>
    <g id="xtick_4">
     <g id="line2d_4">
      <path d="M 87.091466 83.78 
L 87.091466 7.2 
" clip-path="url(#p07ed4db525)" style="fill: none; stroke: #ebebeb; stroke-width: 0.5; stroke-linecap: round"/>
     </g>
    </g>
    <g id="xtick_5">
     <g id="line2d_5">
      <path d="M 102.306851 83.78 
L 102.306851 7.2 
" clip-path="url(#p07ed4db525)" style="fill: none; stroke: #ebebeb; stroke-width: 0.5; stroke-linecap: round"/>
     </g>
    </g>
    <g id="xtick_6">
     <g id="line2d_6">
      <path d="M 117.522236 83.78 
L 117.522236 7.2 
" clip-path="url(#p07ed4db525)" style="fill: none; stroke: #ebebeb; stroke-width: 0.5; stroke-linecap: round"/>
     </g>
    </g>
    <g id="xtick_7">
     <g id="line2d_7">
      <path d="M 132.73762 83.78 
L 132.73762 7.2 
" clip-path="url(#p07ed4db525)" style="fill: none; stroke: #ebebeb; stroke-width: 0.5; stroke-linecap: round"/>
     </g>
    </g>
    <g id="xtick_8">
     <g id="line2d_8">
      <path d="M 147.953005 83.78 
L 147.953005 7.2 
" clip-path="url(#p07ed4db525)" style="fill: none; stroke: #ebebeb; stroke-width: 0.5; stroke-linecap: round"/>
     </g>
    </g>
    <g id="xtick_9">
     <g id="line2d_9">
      <path d="M 163.168389 83.78 
L 163.168389 7.2 
" clip-path="url(#p07ed4db525)" style="fill: none; stroke: #ebebeb; stroke-width: 0.5; stroke-linecap: round"/>
     </g>
    </g>
    <g id="xtick_10">
     <g id="line2d_10">
      <path d="M 178.383774 83.78 
L 178.383774 7.2 
" clip-path="url(#p07ed4db525)" style="fill: none; stroke: #ebebeb; stroke-width: 0.5; stroke-linecap: round"/>
     </g>
    </g>
    <g id="xtick_11">
     <g id="line2d_11">
      <path d="M 193.599159 83.78 
L 193.599159 7.2 
" clip-path="url(#p07ed4db525)" style="fill: none; stroke: #ebebeb; stroke-width: 0.5; stroke-linecap: round"/>
     </g>
    </g>
    <g id="xtick_12">
     <g id="line2d_12">
      <path d="M 208.814543 83.78 
L 208.814543 7.2 
" clip-path="url(#p07ed4db525)" style="fill: none; stroke: #ebebeb; stroke-width: 0.5; stroke-linecap: round"/>
     </g>
    </g>
    <g id="xtick_13">
     <g id="line2d_13">
      <path d="M 224.029928 83.78 
L 224.029928 7.2 
" clip-path="url(#p07ed4db525)" style="fill: none; stroke: #ebebeb; stroke-width: 0.5; stroke-linecap: round"/>
     </g>
    </g>
   </g>
   <g id="matplotlib.axis_2">
    <g id="ytick_1">
     <g id="line2d_14">
      <path d="M 41.445312 83.78 
L 239.245313 83.78 
" clip-path="url(#p07ed4db525)" style="fill: none; stroke: #ebebeb; stroke-width: 0.5; stroke-linecap: round"/>
     </g>
     <g id="text_1">
      <!-- 0 -->
      <g style="fill: #262626" transform="translate(29.440469 87.001016) scale(0.09 -0.09)">
       <defs>
        <path id="ArialMT-30" d="M 266 2259 
Q 266 3072 433 3567 
Q 600 4063 929 4331 
Q 1259 4600 1759 4600 
Q 2128 4600 2406 4451 
Q 2684 4303 2865 4023 
Q 3047 3744 3150 3342 
Q 3253 2941 3253 2259 
Q 3253 1453 3087 958 
Q 2922 463 2592 192 
Q 2263 -78 1759 -78 
Q 1097 -78 719 397 
Q 266 969 266 2259 
z
M 844 2259 
Q 844 1131 1108 757 
Q 1372 384 1759 384 
Q 2147 384 2411 759 
Q 2675 1134 2675 2259 
Q 2675 3391 2411 3762 
Q 2147 4134 1753 4134 
Q 1366 4134 1134 3806 
Q 844 3388 844 2259 
z
" transform="scale(0.015625)"/>
       </defs>
       <use xlink:href="#ArialMT-30"/>
      </g>
     </g>
    </g>
    <g id="ytick_2">
     <g id="line2d_15">
      <path d="M 41.445312 62.233964 
L 239.245313 62.233964 
" clip-path="url(#p07ed4db525)" style="fill: none; stroke: #ebebeb; stroke-width: 0.5; stroke-linecap: round"/>
     </g>
     <g id="text_2">
      <!-- 200 -->
      <g style="fill: #262626" transform="translate(19.430781 65.454979) scale(0.09 -0.09)">
       <defs>
        <path id="ArialMT-32" d="M 3222 541 
L 3222 0 
L 194 0 
Q 188 203 259 391 
Q 375 700 629 1000 
Q 884 1300 1366 1694 
Q 2113 2306 2375 2664 
Q 2638 3022 2638 3341 
Q 2638 3675 2398 3904 
Q 2159 4134 1775 4134 
Q 1369 4134 1125 3890 
Q 881 3647 878 3216 
L 300 3275 
Q 359 3922 746 4261 
Q 1134 4600 1788 4600 
Q 2447 4600 2831 4234 
Q 3216 3869 3216 3328 
Q 3216 3053 3103 2787 
Q 2991 2522 2730 2228 
Q 2469 1934 1863 1422 
Q 1356 997 1212 845 
Q 1069 694 975 541 
L 3222 541 
z
" transform="scale(0.015625)"/>
       </defs>
       <use xlink:href="#ArialMT-32"/>
       <use xlink:href="#ArialMT-30" x="55.615234"/>
       <use xlink:href="#ArialMT-30" x="111.230469"/>
      </g>
     </g>
    </g>
    <g id="ytick_3">
     <g id="line2d_16">
      <path d="M 41.445312 40.687927 
L 239.245313 40.687927 
" clip-path="url(#p07ed4db525)" style="fill: none; stroke: #ebebeb; stroke-width: 0.5; stroke-linecap: round"/>
     </g>
     <g id="text_3">
      <!-- 400 -->
      <g style="fill: #262626" transform="translate(19.430781 43.908943) scale(0.09 -0.09)">
       <defs>
        <path id="ArialMT-34" d="M 2069 0 
L 2069 1097 
L 81 1097 
L 81 1613 
L 2172 4581 
L 2631 4581 
L 2631 1613 
L 3250 1613 
L 3250 1097 
L 2631 1097 
L 2631 0 
L 2069 0 
z
M 2069 1613 
L 2069 3678 
L 634 1613 
L 2069 1613 
z
" transform="scale(0.015625)"/>
       </defs>
       <use xlink:href="#ArialMT-34"/>
       <use xlink:href="#ArialMT-30" x="55.615234"/>
       <use xlink:href="#ArialMT-30" x="111.230469"/>
      </g>
     </g>
    </g>
    <g id="ytick_4">
     <g id="line2d_17">
      <path d="M 41.445312 19.141891 
L 239.245313 19.141891 
" clip-path="url(#p07ed4db525)" style="fill: none; stroke: #ebebeb; stroke-width: 0.5; stroke-linecap: round"/>
     </g>
     <g id="text_4">
      <!-- 600 -->
      <g style="fill: #262626" transform="translate(19.430781 22.362906) scale(0.09 -0.09)">
       <defs>
        <path id="ArialMT-36" d="M 3184 3459 
L 2625 3416 
Q 2550 3747 2413 3897 
Q 2184 4138 1850 4138 
Q 1581 4138 1378 3988 
Q 1113 3794 959 3422 
Q 806 3050 800 2363 
Q 1003 2672 1297 2822 
Q 1591 2972 1913 2972 
Q 2475 2972 2870 2558 
Q 3266 2144 3266 1488 
Q 3266 1056 3080 686 
Q 2894 316 2569 119 
Q 2244 -78 1831 -78 
Q 1128 -78 684 439 
Q 241 956 241 2144 
Q 241 3472 731 4075 
Q 1159 4600 1884 4600 
Q 2425 4600 2770 4297 
Q 3116 3994 3184 3459 
z
M 888 1484 
Q 888 1194 1011 928 
Q 1134 663 1356 523 
Q 1578 384 1822 384 
Q 2178 384 2434 671 
Q 2691 959 2691 1453 
Q 2691 1928 2437 2201 
Q 2184 2475 1800 2475 
Q 1419 2475 1153 2201 
Q 888 1928 888 1484 
z
" transform="scale(0.015625)"/>
       </defs>
       <use xlink:href="#ArialMT-36"/>
       <use xlink:href="#ArialMT-30" x="55.615234"/>
       <use xlink:href="#ArialMT-30" x="111.230469"/>
      </g>
     </g>
    </g>
    <g id="text_5">
     <!-- Count -->
     <g style="fill: #262626" transform="translate(13.642031 57.497266) rotate(-90) scale(0.09 -0.09)">
      <defs>
       <path id="ArialMT-43" d="M 3763 1606 
L 4369 1453 
Q 4178 706 3683 314 
Q 3188 -78 2472 -78 
Q 1731 -78 1267 223 
Q 803 525 561 1097 
Q 319 1669 319 2325 
Q 319 3041 592 3573 
Q 866 4106 1370 4382 
Q 1875 4659 2481 4659 
Q 3169 4659 3637 4309 
Q 4106 3959 4291 3325 
L 3694 3184 
Q 3534 3684 3231 3912 
Q 2928 4141 2469 4141 
Q 1941 4141 1586 3887 
Q 1231 3634 1087 3207 
Q 944 2781 944 2328 
Q 944 1744 1114 1308 
Q 1284 872 1643 656 
Q 2003 441 2422 441 
Q 2931 441 3284 734 
Q 3638 1028 3763 1606 
z
" transform="scale(0.015625)"/>
       <path id="ArialMT-6f" d="M 213 1659 
Q 213 2581 725 3025 
Q 1153 3394 1769 3394 
Q 2453 3394 2887 2945 
Q 3322 2497 3322 1706 
Q 3322 1066 3130 698 
Q 2938 331 2570 128 
Q 2203 -75 1769 -75 
Q 1072 -75 642 372 
Q 213 819 213 1659 
z
M 791 1659 
Q 791 1022 1069 705 
Q 1347 388 1769 388 
Q 2188 388 2466 706 
Q 2744 1025 2744 1678 
Q 2744 2294 2464 2611 
Q 2184 2928 1769 2928 
Q 1347 2928 1069 2612 
Q 791 2297 791 1659 
z
" transform="scale(0.015625)"/>
       <path id="ArialMT-75" d="M 2597 0 
L 2597 488 
Q 2209 -75 1544 -75 
Q 1250 -75 995 37 
Q 741 150 617 320 
Q 494 491 444 738 
Q 409 903 409 1263 
L 409 3319 
L 972 3319 
L 972 1478 
Q 972 1038 1006 884 
Q 1059 663 1231 536 
Q 1403 409 1656 409 
Q 1909 409 2131 539 
Q 2353 669 2445 892 
Q 2538 1116 2538 1541 
L 2538 3319 
L 3100 3319 
L 3100 0 
L 2597 0 
z
" transform="scale(0.015625)"/>
       <path id="ArialMT-6e" d="M 422 0 
L 422 3319 
L 928 3319 
L 928 2847 
Q 1294 3394 1984 3394 
Q 2284 3394 2536 3286 
Q 2788 3178 2913 3003 
Q 3038 2828 3088 2588 
Q 3119 2431 3119 2041 
L 3119 0 
L 2556 0 
L 2556 2019 
Q 2556 2363 2490 2533 
Q 2425 2703 2258 2804 
Q 2091 2906 1866 2906 
Q 1506 2906 1245 2678 
Q 984 2450 984 1813 
L 984 0 
L 422 0 
z
" transform="scale(0.015625)"/>
       <path id="ArialMT-74" d="M 1650 503 
L 1731 6 
Q 1494 -44 1306 -44 
Q 1000 -44 831 53 
Q 663 150 594 308 
Q 525 466 525 972 
L 525 2881 
L 113 2881 
L 113 3319 
L 525 3319 
L 525 4141 
L 1084 4478 
L 1084 3319 
L 1650 3319 
L 1650 2881 
L 1084 2881 
L 1084 941 
Q 1084 700 1114 631 
Q 1144 563 1211 522 
Q 1278 481 1403 481 
Q 1497 481 1650 503 
z
" transform="scale(0.015625)"/>
      </defs>
      <use xlink:href="#ArialMT-43"/>
      <use xlink:href="#ArialMT-6f" x="72.216797"/>
      <use xlink:href="#ArialMT-75" x="127.832031"/>
      <use xlink:href="#ArialMT-6e" x="183.447266"/>
      <use xlink:href="#ArialMT-74" x="239.0625"/>
     </g>
    </g>
   </g>
   <g id="patch_3">
    <path d="M 24.708389 83.78 
L 27.751466 83.78 
L 27.751466 83.78 
L 24.708389 83.78 
z
" clip-path="url(#p07ed4db525)" style="fill: #336199; fill-opacity: 0.75; stroke: #ffffff; stroke-width: 0.177545; stroke-linejoin: miter"/>
   </g>
   <g id="patch_4">
    <path d="M 27.751466 83.78 
L 30.794543 83.78 
L 30.794543 83.78 
L 27.751466 83.78 
z
" clip-path="url(#p07ed4db525)" style="fill: #336199; fill-opacity: 0.75; stroke: #ffffff; stroke-width: 0.177545; stroke-linejoin: miter"/>
   </g>
   <g id="patch_5">
    <path d="M 30.794543 83.78 
L 33.83762 83.78 
L 33.83762 83.78 
L 30.794543 83.78 
z
" clip-path="url(#p07ed4db525)" style="fill: #336199; fill-opacity: 0.75; stroke: #ffffff; stroke-width: 0.177545; stroke-linejoin: miter"/>
   </g>
   <g id="patch_6">
    <path d="M 33.83762 83.78 
L 36.880697 83.78 
L 36.880697 83.78 
L 33.83762 83.78 
z
" clip-path="url(#p07ed4db525)" style="fill: #336199; fill-opacity: 0.75; stroke: #ffffff; stroke-width: 0.177545; stroke-linejoin: miter"/>
   </g>
   <g id="patch_7">
    <path d="M 36.880697 83.78 
L 39.923774 83.78 
L 39.923774 83.78 
L 36.880697 83.78 
z
" clip-path="url(#p07ed4db525)" style="fill: #336199; fill-opacity: 0.75; stroke: #ffffff; stroke-width: 0.177545; stroke-linejoin: miter"/>
   </g>
   <g id="patch_8">
    <path d="M 39.923774 83.78 
L 42.966851 83.78 
L 42.966851 83.78 
L 39.923774 83.78 
z
" clip-path="url(#p07ed4db525)" style="fill: #336199; fill-opacity: 0.75; stroke: #ffffff; stroke-width: 0.177545; stroke-linejoin: miter"/>
   </g>
   <g id="patch_9">
    <path d="M 42.966851 83.78 
L 46.009928 83.78 
L 46.009928 83.78 
L 42.966851 83.78 
z
" clip-path="url(#p07ed4db525)" style="fill: #336199; fill-opacity: 0.75; stroke: #ffffff; stroke-width: 0.177545; stroke-linejoin: miter"/>
   </g>
   <g id="patch_10">
    <path d="M 46.009928 83.78 
L 49.053005 83.78 
L 49.053005 83.78 
L 46.009928 83.78 
z
" clip-path="url(#p07ed4db525)" style="fill: #336199; fill-opacity: 0.75; stroke: #ffffff; stroke-width: 0.177545; stroke-linejoin: miter"/>
   </g>
   <g id="patch_11">
    <path d="M 49.053005 83.78 
L 52.096082 83.78 
L 52.096082 83.78 
L 49.053005 83.78 
z
" clip-path="url(#p07ed4db525)" style="fill: #336199; fill-opacity: 0.75; stroke: #ffffff; stroke-width: 0.177545; stroke-linejoin: miter"/>
   </g>
   <g id="patch_12">
    <path d="M 52.096082 83.78 
L 55.139159 83.78 
L 55.139159 83.78 
L 52.096082 83.78 
z
" clip-path="url(#p07ed4db525)" style="fill: #336199; fill-opacity: 0.75; stroke: #ffffff; stroke-width: 0.177545; stroke-linejoin: miter"/>
   </g>
   <g id="patch_13">
    <path d="M 55.139159 83.78 
L 58.182236 83.78 
L 58.182236 83.78 
L 55.139159 83.78 
z
" clip-path="url(#p07ed4db525)" style="fill: #336199; fill-opacity: 0.75; stroke: #ffffff; stroke-width: 0.177545; stroke-linejoin: miter"/>
   </g>
   <g id="patch_14">
    <path d="M 58.182236 83.78 
L 61.225313 83.78 
L 61.225313 83.78 
L 58.182236 83.78 
z
" clip-path="url(#p07ed4db525)" style="fill: #336199; fill-opacity: 0.75; stroke: #ffffff; stroke-width: 0.177545; stroke-linejoin: miter"/>
   </g>
   <g id="patch_15">
    <path d="M 61.225313 83.78 
L 64.268389 83.78 
L 64.268389 83.78 
L 61.225313 83.78 
z
" clip-path="url(#p07ed4db525)" style="fill: #336199; fill-opacity: 0.75; stroke: #ffffff; stroke-width: 0.177545; stroke-linejoin: miter"/>
   </g>
   <g id="patch_16">
    <path d="M 64.268389 83.78 
L 67.311466 83.78 
L 67.311466 83.78 
L 64.268389 83.78 
z
" clip-path="url(#p07ed4db525)" style="fill: #336199; fill-opacity: 0.75; stroke: #ffffff; stroke-width: 0.177545; stroke-linejoin: miter"/>
   </g>
   <g id="patch_17">
    <path d="M 67.311466 83.78 
L 70.354543 83.78 
L 70.354543 83.78 
L 67.311466 83.78 
z
" clip-path="url(#p07ed4db525)" style="fill: #336199; fill-opacity: 0.75; stroke: #ffffff; stroke-width: 0.177545; stroke-linejoin: miter"/>
   </g>
   <g id="patch_18">
    <path d="M 70.354543 83.78 
L 73.39762 83.78 
L 73.39762 67.943663 
L 70.354543 67.943663 
z
" clip-path="url(#p07ed4db525)" style="fill: #336199; fill-opacity: 0.75; stroke: #ffffff; stroke-width: 0.177545; stroke-linejoin: miter"/>
   </g>
   <g id="patch_19">
    <path d="M 73.39762 83.78 
L 76.440697 83.78 
L 76.440697 69.559616 
L 73.39762 69.559616 
z
" clip-path="url(#p07ed4db525)" style="fill: #336199; fill-opacity: 0.75; stroke: #ffffff; stroke-width: 0.177545; stroke-linejoin: miter"/>
   </g>
   <g id="patch_20">
    <path d="M 76.440697 83.78 
L 79.483774 83.78 
L 79.483774 69.128695 
L 76.440697 69.128695 
z
" clip-path="url(#p07ed4db525)" style="fill: #336199; fill-opacity: 0.75; stroke: #ffffff; stroke-width: 0.177545; stroke-linejoin: miter"/>
   </g>
   <g id="patch_21">
    <path d="M 79.483774 83.78 
L 82.526851 83.78 
L 82.526851 71.391029 
L 79.483774 71.391029 
z
" clip-path="url(#p07ed4db525)" style="fill: #336199; fill-opacity: 0.75; stroke: #ffffff; stroke-width: 0.177545; stroke-linejoin: miter"/>
   </g>
   <g id="patch_22">
    <path d="M 82.526851 83.78 
L 85.569928 83.78 
L 85.569928 68.051393 
L 82.526851 68.051393 
z
" clip-path="url(#p07ed4db525)" style="fill: #336199; fill-opacity: 0.75; stroke: #ffffff; stroke-width: 0.177545; stroke-linejoin: miter"/>
   </g>
   <g id="patch_23">
    <path d="M 85.569928 83.78 
L 88.613005 83.78 
L 88.613005 69.344156 
L 85.569928 69.344156 
z
" clip-path="url(#p07ed4db525)" style="fill: #336199; fill-opacity: 0.75; stroke: #ffffff; stroke-width: 0.177545; stroke-linejoin: miter"/>
   </g>
   <g id="patch_24">
    <path d="M 88.613005 83.78 
L 91.656082 83.78 
L 91.656082 62.449424 
L 88.613005 62.449424 
z
" clip-path="url(#p07ed4db525)" style="fill: #336199; fill-opacity: 0.75; stroke: #ffffff; stroke-width: 0.177545; stroke-linejoin: miter"/>
   </g>
   <g id="patch_25">
    <path d="M 91.656082 83.78 
L 94.699159 83.78 
L 94.699159 62.449424 
L 91.656082 62.449424 
z
" clip-path="url(#p07ed4db525)" style="fill: #336199; fill-opacity: 0.75; stroke: #ffffff; stroke-width: 0.177545; stroke-linejoin: miter"/>
   </g>
   <g id="patch_26">
    <path d="M 94.699159 83.78 
L 97.742236 83.78 
L 97.742236 63.526726 
L 94.699159 63.526726 
z
" clip-path="url(#p07ed4db525)" style="fill: #336199; fill-opacity: 0.75; stroke: #ffffff; stroke-width: 0.177545; stroke-linejoin: miter"/>
   </g>
   <g id="patch_27">
    <path d="M 97.742236 83.78 
L 100.785313 83.78 
L 100.785313 60.40255 
L 97.742236 60.40255 
z
" clip-path="url(#p07ed4db525)" style="fill: #336199; fill-opacity: 0.75; stroke: #ffffff; stroke-width: 0.177545; stroke-linejoin: miter"/>
   </g>
   <g id="patch_28">
    <path d="M 100.785313 83.78 
L 103.828389 83.78 
L 103.828389 37.994673 
L 100.785313 37.994673 
z
" clip-path="url(#p07ed4db525)" style="fill: #336199; fill-opacity: 0.75; stroke: #ffffff; stroke-width: 0.177545; stroke-linejoin: miter"/>
   </g>
   <g id="patch_29">
    <path d="M 103.828389 83.78 
L 106.871466 83.78 
L 106.871466 61.695313 
L 103.828389 61.695313 
z
" clip-path="url(#p07ed4db525)" style="fill: #336199; fill-opacity: 0.75; stroke: #ffffff; stroke-width: 0.177545; stroke-linejoin: miter"/>
   </g>
   <g id="patch_30">
    <path d="M 106.871466 83.78 
L 109.914543 83.78 
L 109.914543 61.695313 
L 106.871466 61.695313 
z
" clip-path="url(#p07ed4db525)" style="fill: #336199; fill-opacity: 0.75; stroke: #ffffff; stroke-width: 0.177545; stroke-linejoin: miter"/>
   </g>
   <g id="patch_31">
    <path d="M 109.914543 83.78 
L 112.95762 83.78 
L 112.95762 63.418996 
L 109.914543 63.418996 
z
" clip-path="url(#p07ed4db525)" style="fill: #336199; fill-opacity: 0.75; stroke: #ffffff; stroke-width: 0.177545; stroke-linejoin: miter"/>
   </g>
   <g id="patch_32">
    <path d="M 112.95762 83.78 
L 116.000697 83.78 
L 116.000697 65.78906 
L 112.95762 65.78906 
z
" clip-path="url(#p07ed4db525)" style="fill: #336199; fill-opacity: 0.75; stroke: #ffffff; stroke-width: 0.177545; stroke-linejoin: miter"/>
   </g>
   <g id="patch_33">
    <path d="M 116.000697 83.78 
L 119.043774 83.78 
L 119.043774 70.744648 
L 116.000697 70.744648 
z
" clip-path="url(#p07ed4db525)" style="fill: #336199; fill-opacity: 0.75; stroke: #ffffff; stroke-width: 0.177545; stroke-linejoin: miter"/>
   </g>
   <g id="patch_34">
    <path d="M 119.043774 83.78 
L 122.086851 83.78 
L 122.086851 71.92968 
L 119.043774 71.92968 
z
" clip-path="url(#p07ed4db525)" style="fill: #336199; fill-opacity: 0.75; stroke: #ffffff; stroke-width: 0.177545; stroke-linejoin: miter"/>
   </g>
   <g id="patch_35">
    <path d="M 122.086851 83.78 
L 125.129928 83.78 
L 125.129928 72.252871 
L 122.086851 72.252871 
z
" clip-path="url(#p07ed4db525)" style="fill: #336199; fill-opacity: 0.75; stroke: #ffffff; stroke-width: 0.177545; stroke-linejoin: miter"/>
   </g>
   <g id="patch_36">
    <path d="M 125.129928 83.78 
L 128.173005 83.78 
L 128.173005 70.636918 
L 125.129928 70.636918 
z
" clip-path="url(#p07ed4db525)" style="fill: #336199; fill-opacity: 0.75; stroke: #ffffff; stroke-width: 0.177545; stroke-linejoin: miter"/>
   </g>
   <g id="patch_37">
    <path d="M 128.173005 83.78 
L 131.216082 83.78 
L 131.216082 72.683791 
L 128.173005 72.683791 
z
" clip-path="url(#p07ed4db525)" style="fill: #336199; fill-opacity: 0.75; stroke: #ffffff; stroke-width: 0.177545; stroke-linejoin: miter"/>
   </g>
   <g id="patch_38">
    <path d="M 131.216082 83.78 
L 134.259159 83.78 
L 134.259159 73.653363 
L 131.216082 73.653363 
z
" clip-path="url(#p07ed4db525)" style="fill: #336199; fill-opacity: 0.75; stroke: #ffffff; stroke-width: 0.177545; stroke-linejoin: miter"/>
   </g>
   <g id="patch_39">
    <path d="M 134.259159 83.78 
L 137.302236 83.78 
L 137.302236 73.976553 
L 134.259159 73.976553 
z
" clip-path="url(#p07ed4db525)" style="fill: #336199; fill-opacity: 0.75; stroke: #ffffff; stroke-width: 0.177545; stroke-linejoin: miter"/>
   </g>
   <g id="patch_40">
    <path d="M 137.302236 83.78 
L 140.345313 83.78 
L 140.345313 73.114712 
L 137.302236 73.114712 
z
" clip-path="url(#p07ed4db525)" style="fill: #336199; fill-opacity: 0.75; stroke: #ffffff; stroke-width: 0.177545; stroke-linejoin: miter"/>
   </g>
   <g id="patch_41">
    <path d="M 140.345313 83.78 
L 143.388389 83.78 
L 143.388389 75.700236 
L 140.345313 75.700236 
z
" clip-path="url(#p07ed4db525)" style="fill: #336199; fill-opacity: 0.75; stroke: #ffffff; stroke-width: 0.177545; stroke-linejoin: miter"/>
   </g>
   <g id="patch_42">
    <path d="M 143.388389 83.78 
L 146.431466 83.78 
L 146.431466 74.838395 
L 143.388389 74.838395 
z
" clip-path="url(#p07ed4db525)" style="fill: #336199; fill-opacity: 0.75; stroke: #ffffff; stroke-width: 0.177545; stroke-linejoin: miter"/>
   </g>
   <g id="patch_43">
    <path d="M 146.431466 83.78 
L 149.474543 83.78 
L 149.474543 76.238887 
L 146.431466 76.238887 
z
" clip-path="url(#p07ed4db525)" style="fill: #336199; fill-opacity: 0.75; stroke: #ffffff; stroke-width: 0.177545; stroke-linejoin: miter"/>
   </g>
   <g id="patch_44">
    <path d="M 149.474543 83.78 
L 152.51762 83.78 
L 152.51762 74.515204 
L 149.474543 74.515204 
z
" clip-path="url(#p07ed4db525)" style="fill: #336199; fill-opacity: 0.75; stroke: #ffffff; stroke-width: 0.177545; stroke-linejoin: miter"/>
   </g>
   <g id="patch_45">
    <path d="M 152.51762 83.78 
L 155.560697 83.78 
L 155.560697 75.269316 
L 152.51762 75.269316 
z
" clip-path="url(#p07ed4db525)" style="fill: #336199; fill-opacity: 0.75; stroke: #ffffff; stroke-width: 0.177545; stroke-linejoin: miter"/>
   </g>
   <g id="patch_46">
    <path d="M 155.560697 83.78 
L 158.603774 83.78 
L 158.603774 75.269316 
L 155.560697 75.269316 
z
" clip-path="url(#p07ed4db525)" style="fill: #336199; fill-opacity: 0.75; stroke: #ffffff; stroke-width: 0.177545; stroke-linejoin: miter"/>
   </g>
   <g id="patch_47">
    <path d="M 158.603774 83.78 
L 161.646851 83.78 
L 161.646851 73.868823 
L 158.603774 73.868823 
z
" clip-path="url(#p07ed4db525)" style="fill: #336199; fill-opacity: 0.75; stroke: #ffffff; stroke-width: 0.177545; stroke-linejoin: miter"/>
   </g>
   <g id="patch_48">
    <path d="M 161.646851 83.78 
L 164.689928 83.78 
L 164.689928 72.576061 
L 161.646851 72.576061 
z
" clip-path="url(#p07ed4db525)" style="fill: #336199; fill-opacity: 0.75; stroke: #ffffff; stroke-width: 0.177545; stroke-linejoin: miter"/>
   </g>
   <g id="patch_49">
    <path d="M 164.689928 83.78 
L 167.733005 83.78 
L 167.733005 68.697774 
L 164.689928 68.697774 
z
" clip-path="url(#p07ed4db525)" style="fill: #336199; fill-opacity: 0.75; stroke: #ffffff; stroke-width: 0.177545; stroke-linejoin: miter"/>
   </g>
   <g id="patch_50">
    <path d="M 167.733005 83.78 
L 170.776082 83.78 
L 170.776082 68.374584 
L 167.733005 68.374584 
z
" clip-path="url(#p07ed4db525)" style="fill: #336199; fill-opacity: 0.75; stroke: #ffffff; stroke-width: 0.177545; stroke-linejoin: miter"/>
   </g>
   <g id="patch_51">
    <path d="M 170.776082 83.78 
L 173.819159 83.78 
L 173.819159 68.805505 
L 170.776082 68.805505 
z
" clip-path="url(#p07ed4db525)" style="fill: #336199; fill-opacity: 0.75; stroke: #ffffff; stroke-width: 0.177545; stroke-linejoin: miter"/>
   </g>
   <g id="patch_52">
    <path d="M 173.819159 83.78 
L 176.862236 83.78 
L 176.862236 70.960108 
L 173.819159 70.960108 
z
" clip-path="url(#p07ed4db525)" style="fill: #336199; fill-opacity: 0.75; stroke: #ffffff; stroke-width: 0.177545; stroke-linejoin: miter"/>
   </g>
   <g id="patch_53">
    <path d="M 176.862236 83.78 
L 179.905313 83.78 
L 179.905313 52.969168 
L 176.862236 52.969168 
z
" clip-path="url(#p07ed4db525)" style="fill: #336199; fill-opacity: 0.75; stroke: #ffffff; stroke-width: 0.177545; stroke-linejoin: miter"/>
   </g>
   <g id="patch_54">
    <path d="M 179.905313 83.78 
L 182.948389 83.78 
L 182.948389 73.330172 
L 179.905313 73.330172 
z
" clip-path="url(#p07ed4db525)" style="fill: #336199; fill-opacity: 0.75; stroke: #ffffff; stroke-width: 0.177545; stroke-linejoin: miter"/>
   </g>
   <g id="patch_55">
    <path d="M 182.948389 83.78 
L 185.991466 83.78 
L 185.991466 72.576061 
L 182.948389 72.576061 
z
" clip-path="url(#p07ed4db525)" style="fill: #336199; fill-opacity: 0.75; stroke: #ffffff; stroke-width: 0.177545; stroke-linejoin: miter"/>
   </g>
   <g id="patch_56">
    <path d="M 185.991466 83.78 
L 189.034543 83.78 
L 189.034543 74.515204 
L 185.991466 74.515204 
z
" clip-path="url(#p07ed4db525)" style="fill: #336199; fill-opacity: 0.75; stroke: #ffffff; stroke-width: 0.177545; stroke-linejoin: miter"/>
   </g>
   <g id="patch_57">
    <path d="M 189.034543 83.78 
L 192.07762 83.78 
L 192.07762 74.838395 
L 189.034543 74.838395 
z
" clip-path="url(#p07ed4db525)" style="fill: #336199; fill-opacity: 0.75; stroke: #ffffff; stroke-width: 0.177545; stroke-linejoin: miter"/>
   </g>
   <g id="patch_58">
    <path d="M 192.07762 83.78 
L 195.120697 83.78 
L 195.120697 73.222442 
L 192.07762 73.222442 
z
" clip-path="url(#p07ed4db525)" style="fill: #336199; fill-opacity: 0.75; stroke: #ffffff; stroke-width: 0.177545; stroke-linejoin: miter"/>
   </g>
   <g id="patch_59">
    <path d="M 195.120697 83.78 
L 198.163774 83.78 
L 198.163774 83.78 
L 195.120697 83.78 
z
" clip-path="url(#p07ed4db525)" style="fill: #336199; fill-opacity: 0.75; stroke: #ffffff; stroke-width: 0.177545; stroke-linejoin: miter"/>
   </g>
   <g id="patch_60">
    <path d="M 198.163774 83.78 
L 201.206851 83.78 
L 201.206851 83.78 
L 198.163774 83.78 
z
" clip-path="url(#p07ed4db525)" style="fill: #336199; fill-opacity: 0.75; stroke: #ffffff; stroke-width: 0.177545; stroke-linejoin: miter"/>
   </g>
   <g id="patch_61">
    <path d="M 201.206851 83.78 
L 204.249928 83.78 
L 204.249928 83.78 
L 201.206851 83.78 
z
" clip-path="url(#p07ed4db525)" style="fill: #336199; fill-opacity: 0.75; stroke: #ffffff; stroke-width: 0.177545; stroke-linejoin: miter"/>
   </g>
   <g id="patch_62">
    <path d="M 204.249928 83.78 
L 207.293005 83.78 
L 207.293005 83.78 
L 204.249928 83.78 
z
" clip-path="url(#p07ed4db525)" style="fill: #336199; fill-opacity: 0.75; stroke: #ffffff; stroke-width: 0.177545; stroke-linejoin: miter"/>
   </g>
   <g id="patch_63">
    <path d="M 207.293005 83.78 
L 210.336082 83.78 
L 210.336082 83.78 
L 207.293005 83.78 
z
" clip-path="url(#p07ed4db525)" style="fill: #336199; fill-opacity: 0.75; stroke: #ffffff; stroke-width: 0.177545; stroke-linejoin: miter"/>
   </g>
   <g id="patch_64">
    <path d="M 210.336082 83.78 
L 213.379159 83.78 
L 213.379159 83.78 
L 210.336082 83.78 
z
" clip-path="url(#p07ed4db525)" style="fill: #336199; fill-opacity: 0.75; stroke: #ffffff; stroke-width: 0.177545; stroke-linejoin: miter"/>
   </g>
   <g id="patch_65">
    <path d="M 213.379159 83.78 
L 216.422236 83.78 
L 216.422236 83.78 
L 213.379159 83.78 
z
" clip-path="url(#p07ed4db525)" style="fill: #336199; fill-opacity: 0.75; stroke: #ffffff; stroke-width: 0.177545; stroke-linejoin: miter"/>
   </g>
   <g id="patch_66">
    <path d="M 216.422236 83.78 
L 219.465313 83.78 
L 219.465313 83.78 
L 216.422236 83.78 
z
" clip-path="url(#p07ed4db525)" style="fill: #336199; fill-opacity: 0.75; stroke: #ffffff; stroke-width: 0.177545; stroke-linejoin: miter"/>
   </g>
   <g id="patch_67">
    <path d="M 219.465313 83.78 
L 222.508389 83.78 
L 222.508389 83.78 
L 219.465313 83.78 
z
" clip-path="url(#p07ed4db525)" style="fill: #336199; fill-opacity: 0.75; stroke: #ffffff; stroke-width: 0.177545; stroke-linejoin: miter"/>
   </g>
   <g id="patch_68">
    <path d="M 222.508389 83.78 
L 225.551466 83.78 
L 225.551466 83.78 
L 222.508389 83.78 
z
" clip-path="url(#p07ed4db525)" style="fill: #336199; fill-opacity: 0.75; stroke: #ffffff; stroke-width: 0.177545; stroke-linejoin: miter"/>
   </g>
   <g id="patch_69">
    <path d="M 225.551466 83.78 
L 228.594543 83.78 
L 228.594543 83.78 
L 225.551466 83.78 
z
" clip-path="url(#p07ed4db525)" style="fill: #336199; fill-opacity: 0.75; stroke: #ffffff; stroke-width: 0.177545; stroke-linejoin: miter"/>
   </g>
   <g id="patch_70">
    <path d="M 228.594543 83.78 
L 231.63762 83.78 
L 231.63762 83.78 
L 228.594543 83.78 
z
" clip-path="url(#p07ed4db525)" style="fill: #336199; fill-opacity: 0.75; stroke: #ffffff; stroke-width: 0.177545; stroke-linejoin: miter"/>
   </g>
   <g id="patch_71">
    <path d="M 231.63762 83.78 
L 234.680697 83.78 
L 234.680697 83.78 
L 231.63762 83.78 
z
" clip-path="url(#p07ed4db525)" style="fill: #336199; fill-opacity: 0.75; stroke: #ffffff; stroke-width: 0.177545; stroke-linejoin: miter"/>
   </g>
   <g id="patch_72">
    <path d="M 234.680697 83.78 
L 237.723774 83.78 
L 237.723774 83.78 
L 234.680697 83.78 
z
" clip-path="url(#p07ed4db525)" style="fill: #336199; fill-opacity: 0.75; stroke: #ffffff; stroke-width: 0.177545; stroke-linejoin: miter"/>
   </g>
   <g id="patch_73">
    <path d="M 237.723774 83.78 
L 240.766851 83.78 
L 240.766851 83.78 
L 237.723774 83.78 
z
" clip-path="url(#p07ed4db525)" style="fill: #336199; fill-opacity: 0.75; stroke: #ffffff; stroke-width: 0.177545; stroke-linejoin: miter"/>
   </g>
   <g id="patch_74">
    <path d="M 240.766851 83.78 
L 243.809928 83.78 
L 243.809928 83.78 
L 240.766851 83.78 
z
" clip-path="url(#p07ed4db525)" style="fill: #336199; fill-opacity: 0.75; stroke: #ffffff; stroke-width: 0.177545; stroke-linejoin: miter"/>
   </g>
   <g id="patch_75">
    <path d="M 243.809928 83.78 
L 246.853005 83.78 
L 246.853005 83.78 
L 243.809928 83.78 
z
" clip-path="url(#p07ed4db525)" style="fill: #336199; fill-opacity: 0.75; stroke: #ffffff; stroke-width: 0.177545; stroke-linejoin: miter"/>
   </g>
   <g id="patch_76">
    <path d="M 246.853005 83.78 
L 249.896082 83.78 
L 249.896082 83.78 
L 246.853005 83.78 
z
" clip-path="url(#p07ed4db525)" style="fill: #336199; fill-opacity: 0.75; stroke: #ffffff; stroke-width: 0.177545; stroke-linejoin: miter"/>
   </g>
   <g id="patch_77">
    <path d="M 249.896082 83.78 
L 252.939159 83.78 
L 252.939159 83.78 
L 249.896082 83.78 
z
" clip-path="url(#p07ed4db525)" style="fill: #336199; fill-opacity: 0.75; stroke: #ffffff; stroke-width: 0.177545; stroke-linejoin: miter"/>
   </g>
   <g id="patch_78">
    <path d="M 252.939159 83.78 
L 255.982236 83.78 
L 255.982236 83.78 
L 252.939159 83.78 
z
" clip-path="url(#p07ed4db525)" style="fill: #336199; fill-opacity: 0.75; stroke: #ffffff; stroke-width: 0.177545; stroke-linejoin: miter"/>
   </g>
   <g id="patch_79">
    <path d="M 255.982236 83.78 
L 259.025313 83.78 
L 259.025313 83.78 
L 255.982236 83.78 
z
" clip-path="url(#p07ed4db525)" style="fill: #336199; fill-opacity: 0.75; stroke: #ffffff; stroke-width: 0.177545; stroke-linejoin: miter"/>
   </g>
   <g id="patch_80">
    <path d="M 259.025313 83.78 
L 262.068389 83.78 
L 262.068389 83.78 
L 259.025313 83.78 
z
" clip-path="url(#p07ed4db525)" style="fill: #336199; fill-opacity: 0.75; stroke: #ffffff; stroke-width: 0.177545; stroke-linejoin: miter"/>
   </g>
   <g id="patch_81">
    <path d="M 262.068389 83.78 
L 265.111466 83.78 
L 265.111466 83.78 
L 262.068389 83.78 
z
" clip-path="url(#p07ed4db525)" style="fill: #336199; fill-opacity: 0.75; stroke: #ffffff; stroke-width: 0.177545; stroke-linejoin: miter"/>
   </g>
   <g id="patch_82">
    <path d="M 265.111466 83.78 
L 268.154543 83.78 
L 268.154543 83.78 
L 265.111466 83.78 
z
" clip-path="url(#p07ed4db525)" style="fill: #336199; fill-opacity: 0.75; stroke: #ffffff; stroke-width: 0.177545; stroke-linejoin: miter"/>
   </g>
   <g id="patch_83">
    <path d="M 268.154543 83.78 
L 271.19762 83.78 
L 271.19762 83.78 
L 268.154543 83.78 
z
" clip-path="url(#p07ed4db525)" style="fill: #336199; fill-opacity: 0.75; stroke: #ffffff; stroke-width: 0.177545; stroke-linejoin: miter"/>
   </g>
   <g id="patch_84">
    <path d="M 271.19762 83.78 
L 274.240697 83.78 
L 274.240697 83.78 
L 271.19762 83.78 
z
" clip-path="url(#p07ed4db525)" style="fill: #336199; fill-opacity: 0.75; stroke: #ffffff; stroke-width: 0.177545; stroke-linejoin: miter"/>
   </g>
   <g id="patch_85">
    <path d="M 274.240697 83.78 
L 277.283774 83.78 
L 277.283774 83.78 
L 274.240697 83.78 
z
" clip-path="url(#p07ed4db525)" style="fill: #336199; fill-opacity: 0.75; stroke: #ffffff; stroke-width: 0.177545; stroke-linejoin: miter"/>
   </g>
   <g id="patch_86">
    <path d="M 277.283774 83.78 
L 280.326851 83.78 
L 280.326851 83.78 
L 277.283774 83.78 
z
" clip-path="url(#p07ed4db525)" style="fill: #336199; fill-opacity: 0.75; stroke: #ffffff; stroke-width: 0.177545; stroke-linejoin: miter"/>
   </g>
   <g id="patch_87">
    <path d="M 280.326851 83.78 
L 283.369928 83.78 
L 283.369928 83.78 
L 280.326851 83.78 
z
" clip-path="url(#p07ed4db525)" style="fill: #336199; fill-opacity: 0.75; stroke: #ffffff; stroke-width: 0.177545; stroke-linejoin: miter"/>
   </g>
   <g id="patch_88">
    <path d="M 283.369928 83.78 
L 286.413005 83.78 
L 286.413005 83.78 
L 283.369928 83.78 
z
" clip-path="url(#p07ed4db525)" style="fill: #336199; fill-opacity: 0.75; stroke: #ffffff; stroke-width: 0.177545; stroke-linejoin: miter"/>
   </g>
   <g id="patch_89">
    <path d="M 286.413005 83.78 
L 289.456082 83.78 
L 289.456082 83.78 
L 286.413005 83.78 
z
" clip-path="url(#p07ed4db525)" style="fill: #336199; fill-opacity: 0.75; stroke: #ffffff; stroke-width: 0.177545; stroke-linejoin: miter"/>
   </g>
   <g id="patch_90">
    <path d="M 289.456082 83.78 
L 292.499159 83.78 
L 292.499159 83.78 
L 289.456082 83.78 
z
" clip-path="url(#p07ed4db525)" style="fill: #336199; fill-opacity: 0.75; stroke: #ffffff; stroke-width: 0.177545; stroke-linejoin: miter"/>
   </g>
   <g id="patch_91">
    <path d="M 292.499159 83.78 
L 295.542236 83.78 
L 295.542236 83.78 
L 292.499159 83.78 
z
" clip-path="url(#p07ed4db525)" style="fill: #336199; fill-opacity: 0.75; stroke: #ffffff; stroke-width: 0.177545; stroke-linejoin: miter"/>
   </g>
   <g id="patch_92">
    <path d="M 295.542236 83.78 
L 298.585313 83.78 
L 298.585313 83.78 
L 295.542236 83.78 
z
" clip-path="url(#p07ed4db525)" style="fill: #336199; fill-opacity: 0.75; stroke: #ffffff; stroke-width: 0.177545; stroke-linejoin: miter"/>
   </g>
   <g id="patch_93">
    <path d="M 298.585313 83.78 
L 301.628389 83.78 
L 301.628389 83.78 
L 298.585313 83.78 
z
" clip-path="url(#p07ed4db525)" style="fill: #336199; fill-opacity: 0.75; stroke: #ffffff; stroke-width: 0.177545; stroke-linejoin: miter"/>
   </g>
   <g id="patch_94">
    <path d="M 301.628389 83.78 
L 304.671466 83.78 
L 304.671466 83.78 
L 301.628389 83.78 
z
" clip-path="url(#p07ed4db525)" style="fill: #336199; fill-opacity: 0.75; stroke: #ffffff; stroke-width: 0.177545; stroke-linejoin: miter"/>
   </g>
   <g id="patch_95">
    <path d="M 304.671466 83.78 
L 307.714543 83.78 
L 307.714543 83.78 
L 304.671466 83.78 
z
" clip-path="url(#p07ed4db525)" style="fill: #336199; fill-opacity: 0.75; stroke: #ffffff; stroke-width: 0.177545; stroke-linejoin: miter"/>
   </g>
   <g id="patch_96">
    <path d="M 307.714543 83.78 
L 310.75762 83.78 
L 310.75762 83.78 
L 307.714543 83.78 
z
" clip-path="url(#p07ed4db525)" style="fill: #336199; fill-opacity: 0.75; stroke: #ffffff; stroke-width: 0.177545; stroke-linejoin: miter"/>
   </g>
   <g id="patch_97">
    <path d="M 310.75762 83.78 
L 313.800697 83.78 
L 313.800697 83.78 
L 310.75762 83.78 
z
" clip-path="url(#p07ed4db525)" style="fill: #336199; fill-opacity: 0.75; stroke: #ffffff; stroke-width: 0.177545; stroke-linejoin: miter"/>
   </g>
   <g id="patch_98">
    <path d="M 313.800697 83.78 
L 316.843774 83.78 
L 316.843774 83.78 
L 313.800697 83.78 
z
" clip-path="url(#p07ed4db525)" style="fill: #336199; fill-opacity: 0.75; stroke: #ffffff; stroke-width: 0.177545; stroke-linejoin: miter"/>
   </g>
   <g id="patch_99">
    <path d="M 316.843774 83.78 
L 319.886851 83.78 
L 319.886851 83.78 
L 316.843774 83.78 
z
" clip-path="url(#p07ed4db525)" style="fill: #336199; fill-opacity: 0.75; stroke: #ffffff; stroke-width: 0.177545; stroke-linejoin: miter"/>
   </g>
   <g id="patch_100">
    <path d="M 319.886851 83.78 
L 322.929928 83.78 
L 322.929928 83.78 
L 319.886851 83.78 
z
" clip-path="url(#p07ed4db525)" style="fill: #336199; fill-opacity: 0.75; stroke: #ffffff; stroke-width: 0.177545; stroke-linejoin: miter"/>
   </g>
   <g id="patch_101">
    <path d="M 322.929928 83.78 
L 325.973005 83.78 
L 325.973005 83.78 
L 322.929928 83.78 
z
" clip-path="url(#p07ed4db525)" style="fill: #336199; fill-opacity: 0.75; stroke: #ffffff; stroke-width: 0.177545; stroke-linejoin: miter"/>
   </g>
   <g id="patch_102">
    <path d="M 325.973005 83.78 
L 329.016082 83.78 
L 329.016082 83.78 
L 325.973005 83.78 
z
" clip-path="url(#p07ed4db525)" style="fill: #336199; fill-opacity: 0.75; stroke: #ffffff; stroke-width: 0.177545; stroke-linejoin: miter"/>
   </g>
   <g id="patch_103">
    <path d="M 24.708389 83.78 
L 27.751466 83.78 
L 27.751466 83.67227 
L 24.708389 83.67227 
z
" clip-path="url(#p07ed4db525)" style="fill: #0acc7b; fill-opacity: 0.5; stroke: #ffffff; stroke-width: 0.177545; stroke-linejoin: miter"/>
   </g>
   <g id="patch_104">
    <path d="M 27.751466 83.78 
L 30.794543 83.78 
L 30.794543 83.56454 
L 27.751466 83.56454 
z
" clip-path="url(#p07ed4db525)" style="fill: #0acc7b; fill-opacity: 0.5; stroke: #ffffff; stroke-width: 0.177545; stroke-linejoin: miter"/>
   </g>
   <g id="patch_105">
    <path d="M 30.794543 83.78 
L 33.83762 83.78 
L 33.83762 83.78 
L 30.794543 83.78 
z
" clip-path="url(#p07ed4db525)" style="fill: #0acc7b; fill-opacity: 0.5; stroke: #ffffff; stroke-width: 0.177545; stroke-linejoin: miter"/>
   </g>
   <g id="patch_106">
    <path d="M 33.83762 83.78 
L 36.880697 83.78 
L 36.880697 83.78 
L 33.83762 83.78 
z
" clip-path="url(#p07ed4db525)" style="fill: #0acc7b; fill-opacity: 0.5; stroke: #ffffff; stroke-width: 0.177545; stroke-linejoin: miter"/>
   </g>
   <g id="patch_107">
    <path d="M 36.880697 83.78 
L 39.923774 83.78 
L 39.923774 83.78 
L 36.880697 83.78 
z
" clip-path="url(#p07ed4db525)" style="fill: #0acc7b; fill-opacity: 0.5; stroke: #ffffff; stroke-width: 0.177545; stroke-linejoin: miter"/>
   </g>
   <g id="patch_108">
    <path d="M 39.923774 83.78 
L 42.966851 83.78 
L 42.966851 83.78 
L 39.923774 83.78 
z
" clip-path="url(#p07ed4db525)" style="fill: #0acc7b; fill-opacity: 0.5; stroke: #ffffff; stroke-width: 0.177545; stroke-linejoin: miter"/>
   </g>
   <g id="patch_109">
    <path d="M 42.966851 83.78 
L 46.009928 83.78 
L 46.009928 83.67227 
L 42.966851 83.67227 
z
" clip-path="url(#p07ed4db525)" style="fill: #0acc7b; fill-opacity: 0.5; stroke: #ffffff; stroke-width: 0.177545; stroke-linejoin: miter"/>
   </g>
   <g id="patch_110">
    <path d="M 46.009928 83.78 
L 49.053005 83.78 
L 49.053005 83.456809 
L 46.009928 83.456809 
z
" clip-path="url(#p07ed4db525)" style="fill: #0acc7b; fill-opacity: 0.5; stroke: #ffffff; stroke-width: 0.177545; stroke-linejoin: miter"/>
   </g>
   <g id="patch_111">
    <path d="M 49.053005 83.78 
L 52.096082 83.78 
L 52.096082 83.349079 
L 49.053005 83.349079 
z
" clip-path="url(#p07ed4db525)" style="fill: #0acc7b; fill-opacity: 0.5; stroke: #ffffff; stroke-width: 0.177545; stroke-linejoin: miter"/>
   </g>
   <g id="patch_112">
    <path d="M 52.096082 83.78 
L 55.139159 83.78 
L 55.139159 83.241349 
L 52.096082 83.241349 
z
" clip-path="url(#p07ed4db525)" style="fill: #0acc7b; fill-opacity: 0.5; stroke: #ffffff; stroke-width: 0.177545; stroke-linejoin: miter"/>
   </g>
   <g id="patch_113">
    <path d="M 55.139159 83.78 
L 58.182236 83.78 
L 58.182236 80.979015 
L 55.139159 80.979015 
z
" clip-path="url(#p07ed4db525)" style="fill: #0acc7b; fill-opacity: 0.5; stroke: #ffffff; stroke-width: 0.177545; stroke-linejoin: miter"/>
   </g>
   <g id="patch_114">
    <path d="M 58.182236 83.78 
L 61.225313 83.78 
L 61.225313 83.456809 
L 58.182236 83.456809 
z
" clip-path="url(#p07ed4db525)" style="fill: #0acc7b; fill-opacity: 0.5; stroke: #ffffff; stroke-width: 0.177545; stroke-linejoin: miter"/>
   </g>
   <g id="patch_115">
    <path d="M 61.225313 83.78 
L 64.268389 83.78 
L 64.268389 79.686253 
L 61.225313 79.686253 
z
" clip-path="url(#p07ed4db525)" style="fill: #0acc7b; fill-opacity: 0.5; stroke: #ffffff; stroke-width: 0.177545; stroke-linejoin: miter"/>
   </g>
   <g id="patch_116">
    <path d="M 64.268389 83.78 
L 67.311466 83.78 
L 67.311466 80.009444 
L 64.268389 80.009444 
z
" clip-path="url(#p07ed4db525)" style="fill: #0acc7b; fill-opacity: 0.5; stroke: #ffffff; stroke-width: 0.177545; stroke-linejoin: miter"/>
   </g>
   <g id="patch_117">
    <path d="M 67.311466 83.78 
L 70.354543 83.78 
L 70.354543 80.117174 
L 67.311466 80.117174 
z
" clip-path="url(#p07ed4db525)" style="fill: #0acc7b; fill-opacity: 0.5; stroke: #ffffff; stroke-width: 0.177545; stroke-linejoin: miter"/>
   </g>
   <g id="patch_118">
    <path d="M 70.354543 83.78 
L 73.39762 83.78 
L 73.39762 63.311265 
L 70.354543 63.311265 
z
" clip-path="url(#p07ed4db525)" style="fill: #0acc7b; fill-opacity: 0.5; stroke: #ffffff; stroke-width: 0.177545; stroke-linejoin: miter"/>
   </g>
   <g id="patch_119">
    <path d="M 73.39762 83.78 
L 76.440697 83.78 
L 76.440697 79.901713 
L 73.39762 79.901713 
z
" clip-path="url(#p07ed4db525)" style="fill: #0acc7b; fill-opacity: 0.5; stroke: #ffffff; stroke-width: 0.177545; stroke-linejoin: miter"/>
   </g>
   <g id="patch_120">
    <path d="M 76.440697 83.78 
L 79.483774 83.78 
L 79.483774 76.238887 
L 76.440697 76.238887 
z
" clip-path="url(#p07ed4db525)" style="fill: #0acc7b; fill-opacity: 0.5; stroke: #ffffff; stroke-width: 0.177545; stroke-linejoin: miter"/>
   </g>
   <g id="patch_121">
    <path d="M 79.483774 83.78 
L 82.526851 83.78 
L 82.526851 71.606489 
L 79.483774 71.606489 
z
" clip-path="url(#p07ed4db525)" style="fill: #0acc7b; fill-opacity: 0.5; stroke: #ffffff; stroke-width: 0.177545; stroke-linejoin: miter"/>
   </g>
   <g id="patch_122">
    <path d="M 82.526851 83.78 
L 85.569928 83.78 
L 85.569928 76.131157 
L 82.526851 76.131157 
z
" clip-path="url(#p07ed4db525)" style="fill: #0acc7b; fill-opacity: 0.5; stroke: #ffffff; stroke-width: 0.177545; stroke-linejoin: miter"/>
   </g>
   <g id="patch_123">
    <path d="M 85.569928 83.78 
L 88.613005 83.78 
L 88.613005 43.704372 
L 85.569928 43.704372 
z
" clip-path="url(#p07ed4db525)" style="fill: #0acc7b; fill-opacity: 0.5; stroke: #ffffff; stroke-width: 0.177545; stroke-linejoin: miter"/>
   </g>
   <g id="patch_124">
    <path d="M 88.613005 83.78 
L 91.656082 83.78 
L 91.656082 74.730665 
L 88.613005 74.730665 
z
" clip-path="url(#p07ed4db525)" style="fill: #0acc7b; fill-opacity: 0.5; stroke: #ffffff; stroke-width: 0.177545; stroke-linejoin: miter"/>
   </g>
   <g id="patch_125">
    <path d="M 91.656082 83.78 
L 94.699159 83.78 
L 94.699159 70.744648 
L 91.656082 70.744648 
z
" clip-path="url(#p07ed4db525)" style="fill: #0acc7b; fill-opacity: 0.5; stroke: #ffffff; stroke-width: 0.177545; stroke-linejoin: miter"/>
   </g>
   <g id="patch_126">
    <path d="M 94.699159 83.78 
L 97.742236 83.78 
L 97.742236 64.388567 
L 94.699159 64.388567 
z
" clip-path="url(#p07ed4db525)" style="fill: #0acc7b; fill-opacity: 0.5; stroke: #ffffff; stroke-width: 0.177545; stroke-linejoin: miter"/>
   </g>
   <g id="patch_127">
    <path d="M 97.742236 83.78 
L 100.785313 83.78 
L 100.785313 68.805505 
L 97.742236 68.805505 
z
" clip-path="url(#p07ed4db525)" style="fill: #0acc7b; fill-opacity: 0.5; stroke: #ffffff; stroke-width: 0.177545; stroke-linejoin: miter"/>
   </g>
   <g id="patch_128">
    <path d="M 100.785313 83.78 
L 103.828389 83.78 
L 103.828389 10.846667 
L 100.785313 10.846667 
z
" clip-path="url(#p07ed4db525)" style="fill: #0acc7b; fill-opacity: 0.5; stroke: #ffffff; stroke-width: 0.177545; stroke-linejoin: miter"/>
   </g>
   <g id="patch_129">
    <path d="M 103.828389 83.78 
L 106.871466 83.78 
L 106.871466 70.098267 
L 103.828389 70.098267 
z
" clip-path="url(#p07ed4db525)" style="fill: #0acc7b; fill-opacity: 0.5; stroke: #ffffff; stroke-width: 0.177545; stroke-linejoin: miter"/>
   </g>
   <g id="patch_130">
    <path d="M 106.871466 83.78 
L 109.914543 83.78 
L 109.914543 65.034948 
L 106.871466 65.034948 
z
" clip-path="url(#p07ed4db525)" style="fill: #0acc7b; fill-opacity: 0.5; stroke: #ffffff; stroke-width: 0.177545; stroke-linejoin: miter"/>
   </g>
   <g id="patch_131">
    <path d="M 109.914543 83.78 
L 112.95762 83.78 
L 112.95762 66.866361 
L 109.914543 66.866361 
z
" clip-path="url(#p07ed4db525)" style="fill: #0acc7b; fill-opacity: 0.5; stroke: #ffffff; stroke-width: 0.177545; stroke-linejoin: miter"/>
   </g>
   <g id="patch_132">
    <path d="M 112.95762 83.78 
L 116.000697 83.78 
L 116.000697 75.592506 
L 112.95762 75.592506 
z
" clip-path="url(#p07ed4db525)" style="fill: #0acc7b; fill-opacity: 0.5; stroke: #ffffff; stroke-width: 0.177545; stroke-linejoin: miter"/>
   </g>
   <g id="patch_133">
    <path d="M 116.000697 83.78 
L 119.043774 83.78 
L 119.043774 49.952723 
L 116.000697 49.952723 
z
" clip-path="url(#p07ed4db525)" style="fill: #0acc7b; fill-opacity: 0.5; stroke: #ffffff; stroke-width: 0.177545; stroke-linejoin: miter"/>
   </g>
   <g id="patch_134">
    <path d="M 119.043774 83.78 
L 122.086851 83.78 
L 122.086851 80.440364 
L 119.043774 80.440364 
z
" clip-path="url(#p07ed4db525)" style="fill: #0acc7b; fill-opacity: 0.5; stroke: #ffffff; stroke-width: 0.177545; stroke-linejoin: miter"/>
   </g>
   <g id="patch_135">
    <path d="M 122.086851 83.78 
L 125.129928 83.78 
L 125.129928 76.238887 
L 122.086851 76.238887 
z
" clip-path="url(#p07ed4db525)" style="fill: #0acc7b; fill-opacity: 0.5; stroke: #ffffff; stroke-width: 0.177545; stroke-linejoin: miter"/>
   </g>
   <g id="patch_136">
    <path d="M 125.129928 83.78 
L 128.173005 83.78 
L 128.173005 73.222442 
L 125.129928 73.222442 
z
" clip-path="url(#p07ed4db525)" style="fill: #0acc7b; fill-opacity: 0.5; stroke: #ffffff; stroke-width: 0.177545; stroke-linejoin: miter"/>
   </g>
   <g id="patch_137">
    <path d="M 128.173005 83.78 
L 131.216082 83.78 
L 131.216082 77.96257 
L 128.173005 77.96257 
z
" clip-path="url(#p07ed4db525)" style="fill: #0acc7b; fill-opacity: 0.5; stroke: #ffffff; stroke-width: 0.177545; stroke-linejoin: miter"/>
   </g>
   <g id="patch_138">
    <path d="M 131.216082 83.78 
L 134.259159 83.78 
L 134.259159 61.048932 
L 131.216082 61.048932 
z
" clip-path="url(#p07ed4db525)" style="fill: #0acc7b; fill-opacity: 0.5; stroke: #ffffff; stroke-width: 0.177545; stroke-linejoin: miter"/>
   </g>
   <g id="patch_139">
    <path d="M 134.259159 83.78 
L 137.302236 83.78 
L 137.302236 79.363063 
L 134.259159 79.363063 
z
" clip-path="url(#p07ed4db525)" style="fill: #0acc7b; fill-opacity: 0.5; stroke: #ffffff; stroke-width: 0.177545; stroke-linejoin: miter"/>
   </g>
   <g id="patch_140">
    <path d="M 137.302236 83.78 
L 140.345313 83.78 
L 140.345313 78.393491 
L 137.302236 78.393491 
z
" clip-path="url(#p07ed4db525)" style="fill: #0acc7b; fill-opacity: 0.5; stroke: #ffffff; stroke-width: 0.177545; stroke-linejoin: miter"/>
   </g>
   <g id="patch_141">
    <path d="M 140.345313 83.78 
L 143.388389 83.78 
L 143.388389 74.407474 
L 140.345313 74.407474 
z
" clip-path="url(#p07ed4db525)" style="fill: #0acc7b; fill-opacity: 0.5; stroke: #ffffff; stroke-width: 0.177545; stroke-linejoin: miter"/>
   </g>
   <g id="patch_142">
    <path d="M 143.388389 83.78 
L 146.431466 83.78 
L 146.431466 80.332634 
L 143.388389 80.332634 
z
" clip-path="url(#p07ed4db525)" style="fill: #0acc7b; fill-opacity: 0.5; stroke: #ffffff; stroke-width: 0.177545; stroke-linejoin: miter"/>
   </g>
   <g id="patch_143">
    <path d="M 146.431466 83.78 
L 149.474543 83.78 
L 149.474543 58.463407 
L 146.431466 58.463407 
z
" clip-path="url(#p07ed4db525)" style="fill: #0acc7b; fill-opacity: 0.5; stroke: #ffffff; stroke-width: 0.177545; stroke-linejoin: miter"/>
   </g>
   <g id="patch_144">
    <path d="M 149.474543 83.78 
L 152.51762 83.78 
L 152.51762 80.979015 
L 149.474543 80.979015 
z
" clip-path="url(#p07ed4db525)" style="fill: #0acc7b; fill-opacity: 0.5; stroke: #ffffff; stroke-width: 0.177545; stroke-linejoin: miter"/>
   </g>
   <g id="patch_145">
    <path d="M 152.51762 83.78 
L 155.560697 83.78 
L 155.560697 76.777538 
L 152.51762 76.777538 
z
" clip-path="url(#p07ed4db525)" style="fill: #0acc7b; fill-opacity: 0.5; stroke: #ffffff; stroke-width: 0.177545; stroke-linejoin: miter"/>
   </g>
   <g id="patch_146">
    <path d="M 155.560697 83.78 
L 158.603774 83.78 
L 158.603774 80.117174 
L 155.560697 80.117174 
z
" clip-path="url(#p07ed4db525)" style="fill: #0acc7b; fill-opacity: 0.5; stroke: #ffffff; stroke-width: 0.177545; stroke-linejoin: miter"/>
   </g>
   <g id="patch_147">
    <path d="M 158.603774 83.78 
L 161.646851 83.78 
L 161.646851 79.578523 
L 158.603774 79.578523 
z
" clip-path="url(#p07ed4db525)" style="fill: #0acc7b; fill-opacity: 0.5; stroke: #ffffff; stroke-width: 0.177545; stroke-linejoin: miter"/>
   </g>
   <g id="patch_148">
    <path d="M 161.646851 83.78 
L 164.689928 83.78 
L 164.689928 56.308804 
L 161.646851 56.308804 
z
" clip-path="url(#p07ed4db525)" style="fill: #0acc7b; fill-opacity: 0.5; stroke: #ffffff; stroke-width: 0.177545; stroke-linejoin: miter"/>
   </g>
   <g id="patch_149">
    <path d="M 164.689928 83.78 
L 167.733005 83.78 
L 167.733005 75.592506 
L 164.689928 75.592506 
z
" clip-path="url(#p07ed4db525)" style="fill: #0acc7b; fill-opacity: 0.5; stroke: #ffffff; stroke-width: 0.177545; stroke-linejoin: miter"/>
   </g>
   <g id="patch_150">
    <path d="M 167.733005 83.78 
L 170.776082 83.78 
L 170.776082 72.03741 
L 167.733005 72.03741 
z
" clip-path="url(#p07ed4db525)" style="fill: #0acc7b; fill-opacity: 0.5; stroke: #ffffff; stroke-width: 0.177545; stroke-linejoin: miter"/>
   </g>
   <g id="patch_151">
    <path d="M 170.776082 83.78 
L 173.819159 83.78 
L 173.819159 68.051393 
L 170.776082 68.051393 
z
" clip-path="url(#p07ed4db525)" style="fill: #0acc7b; fill-opacity: 0.5; stroke: #ffffff; stroke-width: 0.177545; stroke-linejoin: miter"/>
   </g>
   <g id="patch_152">
    <path d="M 173.819159 83.78 
L 176.862236 83.78 
L 176.862236 75.484776 
L 173.819159 75.484776 
z
" clip-path="url(#p07ed4db525)" style="fill: #0acc7b; fill-opacity: 0.5; stroke: #ffffff; stroke-width: 0.177545; stroke-linejoin: miter"/>
   </g>
   <g id="patch_153">
    <path d="M 176.862236 83.78 
L 179.905313 83.78 
L 179.905313 39.502895 
L 176.862236 39.502895 
z
" clip-path="url(#p07ed4db525)" style="fill: #0acc7b; fill-opacity: 0.5; stroke: #ffffff; stroke-width: 0.177545; stroke-linejoin: miter"/>
   </g>
   <g id="patch_154">
    <path d="M 179.905313 83.78 
L 182.948389 83.78 
L 182.948389 78.178031 
L 179.905313 78.178031 
z
" clip-path="url(#p07ed4db525)" style="fill: #0acc7b; fill-opacity: 0.5; stroke: #ffffff; stroke-width: 0.177545; stroke-linejoin: miter"/>
   </g>
   <g id="patch_155">
    <path d="M 182.948389 83.78 
L 185.991466 83.78 
L 185.991466 75.053855 
L 182.948389 75.053855 
z
" clip-path="url(#p07ed4db525)" style="fill: #0acc7b; fill-opacity: 0.5; stroke: #ffffff; stroke-width: 0.177545; stroke-linejoin: miter"/>
   </g>
   <g id="patch_156">
    <path d="M 185.991466 83.78 
L 189.034543 83.78 
L 189.034543 76.885268 
L 185.991466 76.885268 
z
" clip-path="url(#p07ed4db525)" style="fill: #0acc7b; fill-opacity: 0.5; stroke: #ffffff; stroke-width: 0.177545; stroke-linejoin: miter"/>
   </g>
   <g id="patch_157">
    <path d="M 189.034543 83.78 
L 192.07762 83.78 
L 192.07762 81.086745 
L 189.034543 81.086745 
z
" clip-path="url(#p07ed4db525)" style="fill: #0acc7b; fill-opacity: 0.5; stroke: #ffffff; stroke-width: 0.177545; stroke-linejoin: miter"/>
   </g>
   <g id="patch_158">
    <path d="M 192.07762 83.78 
L 195.120697 83.78 
L 195.120697 74.622935 
L 192.07762 74.622935 
z
" clip-path="url(#p07ed4db525)" style="fill: #0acc7b; fill-opacity: 0.5; stroke: #ffffff; stroke-width: 0.177545; stroke-linejoin: miter"/>
   </g>
   <g id="patch_159">
    <path d="M 195.120697 83.78 
L 198.163774 83.78 
L 198.163774 82.594968 
L 195.120697 82.594968 
z
" clip-path="url(#p07ed4db525)" style="fill: #0acc7b; fill-opacity: 0.5; stroke: #ffffff; stroke-width: 0.177545; stroke-linejoin: miter"/>
   </g>
   <g id="patch_160">
    <path d="M 198.163774 83.78 
L 201.206851 83.78 
L 201.206851 82.594968 
L 198.163774 82.594968 
z
" clip-path="url(#p07ed4db525)" style="fill: #0acc7b; fill-opacity: 0.5; stroke: #ffffff; stroke-width: 0.177545; stroke-linejoin: miter"/>
   </g>
   <g id="patch_161">
    <path d="M 201.206851 83.78 
L 204.249928 83.78 
L 204.249928 82.810428 
L 201.206851 82.810428 
z
" clip-path="url(#p07ed4db525)" style="fill: #0acc7b; fill-opacity: 0.5; stroke: #ffffff; stroke-width: 0.177545; stroke-linejoin: miter"/>
   </g>
   <g id="patch_162">
    <path d="M 204.249928 83.78 
L 207.293005 83.78 
L 207.293005 83.025889 
L 204.249928 83.025889 
z
" clip-path="url(#p07ed4db525)" style="fill: #0acc7b; fill-opacity: 0.5; stroke: #ffffff; stroke-width: 0.177545; stroke-linejoin: miter"/>
   </g>
   <g id="patch_163">
    <path d="M 207.293005 83.78 
L 210.336082 83.78 
L 210.336082 80.224904 
L 207.293005 80.224904 
z
" clip-path="url(#p07ed4db525)" style="fill: #0acc7b; fill-opacity: 0.5; stroke: #ffffff; stroke-width: 0.177545; stroke-linejoin: miter"/>
   </g>
   <g id="patch_164">
    <path d="M 210.336082 83.78 
L 213.379159 83.78 
L 213.379159 83.67227 
L 210.336082 83.67227 
z
" clip-path="url(#p07ed4db525)" style="fill: #0acc7b; fill-opacity: 0.5; stroke: #ffffff; stroke-width: 0.177545; stroke-linejoin: miter"/>
   </g>
   <g id="patch_165">
    <path d="M 213.379159 83.78 
L 216.422236 83.78 
L 216.422236 83.133619 
L 213.379159 83.133619 
z
" clip-path="url(#p07ed4db525)" style="fill: #0acc7b; fill-opacity: 0.5; stroke: #ffffff; stroke-width: 0.177545; stroke-linejoin: miter"/>
   </g>
   <g id="patch_166">
    <path d="M 216.422236 83.78 
L 219.465313 83.78 
L 219.465313 83.349079 
L 216.422236 83.349079 
z
" clip-path="url(#p07ed4db525)" style="fill: #0acc7b; fill-opacity: 0.5; stroke: #ffffff; stroke-width: 0.177545; stroke-linejoin: miter"/>
   </g>
   <g id="patch_167">
    <path d="M 219.465313 83.78 
L 222.508389 83.78 
L 222.508389 83.56454 
L 219.465313 83.56454 
z
" clip-path="url(#p07ed4db525)" style="fill: #0acc7b; fill-opacity: 0.5; stroke: #ffffff; stroke-width: 0.177545; stroke-linejoin: miter"/>
   </g>
   <g id="patch_168">
    <path d="M 222.508389 83.78 
L 225.551466 83.78 
L 225.551466 82.702698 
L 222.508389 82.702698 
z
" clip-path="url(#p07ed4db525)" style="fill: #0acc7b; fill-opacity: 0.5; stroke: #ffffff; stroke-width: 0.177545; stroke-linejoin: miter"/>
   </g>
   <g id="patch_169">
    <path d="M 225.551466 83.78 
L 228.594543 83.78 
L 228.594543 83.56454 
L 225.551466 83.56454 
z
" clip-path="url(#p07ed4db525)" style="fill: #0acc7b; fill-opacity: 0.5; stroke: #ffffff; stroke-width: 0.177545; stroke-linejoin: miter"/>
   </g>
   <g id="patch_170">
    <path d="M 228.594543 83.78 
L 231.63762 83.78 
L 231.63762 83.456809 
L 228.594543 83.456809 
z
" clip-path="url(#p07ed4db525)" style="fill: #0acc7b; fill-opacity: 0.5; stroke: #ffffff; stroke-width: 0.177545; stroke-linejoin: miter"/>
   </g>
   <g id="patch_171">
    <path d="M 231.63762 83.78 
L 234.680697 83.78 
L 234.680697 83.78 
L 231.63762 83.78 
z
" clip-path="url(#p07ed4db525)" style="fill: #0acc7b; fill-opacity: 0.5; stroke: #ffffff; stroke-width: 0.177545; stroke-linejoin: miter"/>
   </g>
   <g id="patch_172">
    <path d="M 234.680697 83.78 
L 237.723774 83.78 
L 237.723774 83.67227 
L 234.680697 83.67227 
z
" clip-path="url(#p07ed4db525)" style="fill: #0acc7b; fill-opacity: 0.5; stroke: #ffffff; stroke-width: 0.177545; stroke-linejoin: miter"/>
   </g>
   <g id="patch_173">
    <path d="M 237.723774 83.78 
L 240.766851 83.78 
L 240.766851 83.456809 
L 237.723774 83.456809 
z
" clip-path="url(#p07ed4db525)" style="fill: #0acc7b; fill-opacity: 0.5; stroke: #ffffff; stroke-width: 0.177545; stroke-linejoin: miter"/>
   </g>
   <g id="patch_174">
    <path d="M 240.766851 83.78 
L 243.809928 83.78 
L 243.809928 83.78 
L 240.766851 83.78 
z
" clip-path="url(#p07ed4db525)" style="fill: #0acc7b; fill-opacity: 0.5; stroke: #ffffff; stroke-width: 0.177545; stroke-linejoin: miter"/>
   </g>
   <g id="patch_175">
    <path d="M 243.809928 83.78 
L 246.853005 83.78 
L 246.853005 83.67227 
L 243.809928 83.67227 
z
" clip-path="url(#p07ed4db525)" style="fill: #0acc7b; fill-opacity: 0.5; stroke: #ffffff; stroke-width: 0.177545; stroke-linejoin: miter"/>
   </g>
   <g id="patch_176">
    <path d="M 246.853005 83.78 
L 249.896082 83.78 
L 249.896082 83.78 
L 246.853005 83.78 
z
" clip-path="url(#p07ed4db525)" style="fill: #0acc7b; fill-opacity: 0.5; stroke: #ffffff; stroke-width: 0.177545; stroke-linejoin: miter"/>
   </g>
   <g id="patch_177">
    <path d="M 249.896082 83.78 
L 252.939159 83.78 
L 252.939159 83.78 
L 249.896082 83.78 
z
" clip-path="url(#p07ed4db525)" style="fill: #0acc7b; fill-opacity: 0.5; stroke: #ffffff; stroke-width: 0.177545; stroke-linejoin: miter"/>
   </g>
   <g id="patch_178">
    <path d="M 252.939159 83.78 
L 255.982236 83.78 
L 255.982236 83.67227 
L 252.939159 83.67227 
z
" clip-path="url(#p07ed4db525)" style="fill: #0acc7b; fill-opacity: 0.5; stroke: #ffffff; stroke-width: 0.177545; stroke-linejoin: miter"/>
   </g>
   <g id="patch_179">
    <path d="M 255.982236 83.78 
L 259.025313 83.78 
L 259.025313 83.78 
L 255.982236 83.78 
z
" clip-path="url(#p07ed4db525)" style="fill: #0acc7b; fill-opacity: 0.5; stroke: #ffffff; stroke-width: 0.177545; stroke-linejoin: miter"/>
   </g>
   <g id="patch_180">
    <path d="M 259.025313 83.78 
L 262.068389 83.78 
L 262.068389 83.78 
L 259.025313 83.78 
z
" clip-path="url(#p07ed4db525)" style="fill: #0acc7b; fill-opacity: 0.5; stroke: #ffffff; stroke-width: 0.177545; stroke-linejoin: miter"/>
   </g>
   <g id="patch_181">
    <path d="M 262.068389 83.78 
L 265.111466 83.78 
L 265.111466 83.78 
L 262.068389 83.78 
z
" clip-path="url(#p07ed4db525)" style="fill: #0acc7b; fill-opacity: 0.5; stroke: #ffffff; stroke-width: 0.177545; stroke-linejoin: miter"/>
   </g>
   <g id="patch_182">
    <path d="M 265.111466 83.78 
L 268.154543 83.78 
L 268.154543 83.78 
L 265.111466 83.78 
z
" clip-path="url(#p07ed4db525)" style="fill: #0acc7b; fill-opacity: 0.5; stroke: #ffffff; stroke-width: 0.177545; stroke-linejoin: miter"/>
   </g>
   <g id="patch_183">
    <path d="M 268.154543 83.78 
L 271.19762 83.78 
L 271.19762 83.78 
L 268.154543 83.78 
z
" clip-path="url(#p07ed4db525)" style="fill: #0acc7b; fill-opacity: 0.5; stroke: #ffffff; stroke-width: 0.177545; stroke-linejoin: miter"/>
   </g>
   <g id="patch_184">
    <path d="M 271.19762 83.78 
L 274.240697 83.78 
L 274.240697 83.78 
L 271.19762 83.78 
z
" clip-path="url(#p07ed4db525)" style="fill: #0acc7b; fill-opacity: 0.5; stroke: #ffffff; stroke-width: 0.177545; stroke-linejoin: miter"/>
   </g>
   <g id="patch_185">
    <path d="M 274.240697 83.78 
L 277.283774 83.78 
L 277.283774 83.78 
L 274.240697 83.78 
z
" clip-path="url(#p07ed4db525)" style="fill: #0acc7b; fill-opacity: 0.5; stroke: #ffffff; stroke-width: 0.177545; stroke-linejoin: miter"/>
   </g>
   <g id="patch_186">
    <path d="M 277.283774 83.78 
L 280.326851 83.78 
L 280.326851 83.78 
L 277.283774 83.78 
z
" clip-path="url(#p07ed4db525)" style="fill: #0acc7b; fill-opacity: 0.5; stroke: #ffffff; stroke-width: 0.177545; stroke-linejoin: miter"/>
   </g>
   <g id="patch_187">
    <path d="M 280.326851 83.78 
L 283.369928 83.78 
L 283.369928 83.78 
L 280.326851 83.78 
z
" clip-path="url(#p07ed4db525)" style="fill: #0acc7b; fill-opacity: 0.5; stroke: #ffffff; stroke-width: 0.177545; stroke-linejoin: miter"/>
   </g>
   <g id="patch_188">
    <path d="M 283.369928 83.78 
L 286.413005 83.78 
L 286.413005 83.78 
L 283.369928 83.78 
z
" clip-path="url(#p07ed4db525)" style="fill: #0acc7b; fill-opacity: 0.5; stroke: #ffffff; stroke-width: 0.177545; stroke-linejoin: miter"/>
   </g>
   <g id="patch_189">
    <path d="M 286.413005 83.78 
L 289.456082 83.78 
L 289.456082 83.78 
L 286.413005 83.78 
z
" clip-path="url(#p07ed4db525)" style="fill: #0acc7b; fill-opacity: 0.5; stroke: #ffffff; stroke-width: 0.177545; stroke-linejoin: miter"/>
   </g>
   <g id="patch_190">
    <path d="M 289.456082 83.78 
L 292.499159 83.78 
L 292.499159 83.78 
L 289.456082 83.78 
z
" clip-path="url(#p07ed4db525)" style="fill: #0acc7b; fill-opacity: 0.5; stroke: #ffffff; stroke-width: 0.177545; stroke-linejoin: miter"/>
   </g>
   <g id="patch_191">
    <path d="M 292.499159 83.78 
L 295.542236 83.78 
L 295.542236 83.78 
L 292.499159 83.78 
z
" clip-path="url(#p07ed4db525)" style="fill: #0acc7b; fill-opacity: 0.5; stroke: #ffffff; stroke-width: 0.177545; stroke-linejoin: miter"/>
   </g>
   <g id="patch_192">
    <path d="M 295.542236 83.78 
L 298.585313 83.78 
L 298.585313 83.78 
L 295.542236 83.78 
z
" clip-path="url(#p07ed4db525)" style="fill: #0acc7b; fill-opacity: 0.5; stroke: #ffffff; stroke-width: 0.177545; stroke-linejoin: miter"/>
   </g>
   <g id="patch_193">
    <path d="M 298.585313 83.78 
L 301.628389 83.78 
L 301.628389 83.78 
L 298.585313 83.78 
z
" clip-path="url(#p07ed4db525)" style="fill: #0acc7b; fill-opacity: 0.5; stroke: #ffffff; stroke-width: 0.177545; stroke-linejoin: miter"/>
   </g>
   <g id="patch_194">
    <path d="M 301.628389 83.78 
L 304.671466 83.78 
L 304.671466 83.78 
L 301.628389 83.78 
z
" clip-path="url(#p07ed4db525)" style="fill: #0acc7b; fill-opacity: 0.5; stroke: #ffffff; stroke-width: 0.177545; stroke-linejoin: miter"/>
   </g>
   <g id="patch_195">
    <path d="M 304.671466 83.78 
L 307.714543 83.78 
L 307.714543 83.78 
L 304.671466 83.78 
z
" clip-path="url(#p07ed4db525)" style="fill: #0acc7b; fill-opacity: 0.5; stroke: #ffffff; stroke-width: 0.177545; stroke-linejoin: miter"/>
   </g>
   <g id="patch_196">
    <path d="M 307.714543 83.78 
L 310.75762 83.78 
L 310.75762 83.78 
L 307.714543 83.78 
z
" clip-path="url(#p07ed4db525)" style="fill: #0acc7b; fill-opacity: 0.5; stroke: #ffffff; stroke-width: 0.177545; stroke-linejoin: miter"/>
   </g>
   <g id="patch_197">
    <path d="M 310.75762 83.78 
L 313.800697 83.78 
L 313.800697 83.78 
L 310.75762 83.78 
z
" clip-path="url(#p07ed4db525)" style="fill: #0acc7b; fill-opacity: 0.5; stroke: #ffffff; stroke-width: 0.177545; stroke-linejoin: miter"/>
   </g>
   <g id="patch_198">
    <path d="M 313.800697 83.78 
L 316.843774 83.78 
L 316.843774 83.78 
L 313.800697 83.78 
z
" clip-path="url(#p07ed4db525)" style="fill: #0acc7b; fill-opacity: 0.5; stroke: #ffffff; stroke-width: 0.177545; stroke-linejoin: miter"/>
   </g>
   <g id="patch_199">
    <path d="M 316.843774 83.78 
L 319.886851 83.78 
L 319.886851 83.78 
L 316.843774 83.78 
z
" clip-path="url(#p07ed4db525)" style="fill: #0acc7b; fill-opacity: 0.5; stroke: #ffffff; stroke-width: 0.177545; stroke-linejoin: miter"/>
   </g>
   <g id="patch_200">
    <path d="M 319.886851 83.78 
L 322.929928 83.78 
L 322.929928 83.78 
L 319.886851 83.78 
z
" clip-path="url(#p07ed4db525)" style="fill: #0acc7b; fill-opacity: 0.5; stroke: #ffffff; stroke-width: 0.177545; stroke-linejoin: miter"/>
   </g>
   <g id="patch_201">
    <path d="M 322.929928 83.78 
L 325.973005 83.78 
L 325.973005 83.78 
L 322.929928 83.78 
z
" clip-path="url(#p07ed4db525)" style="fill: #0acc7b; fill-opacity: 0.5; stroke: #ffffff; stroke-width: 0.177545; stroke-linejoin: miter"/>
   </g>
   <g id="patch_202">
    <path d="M 325.973005 83.78 
L 329.016082 83.78 
L 329.016082 83.78 
L 325.973005 83.78 
z
" clip-path="url(#p07ed4db525)" style="fill: #0acc7b; fill-opacity: 0.5; stroke: #ffffff; stroke-width: 0.177545; stroke-linejoin: miter"/>
   </g>
   <g id="patch_203">
    <path d="M 41.445312 83.78 
L 41.445312 7.2 
" style="fill: none; stroke: #cccccc; stroke-width: 0.8; stroke-linejoin: miter; stroke-linecap: square"/>
   </g>
   <g id="patch_204">
    <path d="M 239.245313 83.78 
L 239.245313 7.2 
" style="fill: none; stroke: #cccccc; stroke-width: 0.8; stroke-linejoin: miter; stroke-linecap: square"/>
   </g>
   <g id="patch_205">
    <path d="M 41.445312 83.78 
L 239.245313 83.78 
" style="fill: none; stroke: #cccccc; stroke-width: 0.8; stroke-linejoin: miter; stroke-linecap: square"/>
   </g>
   <g id="patch_206">
    <path d="M 41.445312 7.2 
L 239.245313 7.2 
" style="fill: none; stroke: #cccccc; stroke-width: 0.8; stroke-linejoin: miter; stroke-linecap: square"/>
   </g>
   <g id="legend_1">
    <g id="patch_207">
     <path d="M 45.645313 28.974375 
L 91.86125 28.974375 
Q 93.06125 28.974375 93.06125 27.774375 
L 93.06125 11.4 
Q 93.06125 10.2 91.86125 10.2 
L 45.645313 10.2 
Q 44.445312 10.2 44.445312 11.4 
L 44.445312 27.774375 
Q 44.445312 28.974375 45.645313 28.974375 
z
" style="fill: #ffffff; opacity: 0.8; stroke: #cccccc; stroke-linejoin: miter"/>
    </g>
    <g id="patch_208">
     <path d="M 46.845312 16.894687 
L 58.845312 16.894687 
L 58.845312 12.694687 
L 46.845312 12.694687 
z
" style="fill: #336199; fill-opacity: 0.75; stroke: #ffffff; stroke-width: 0.177545; stroke-linejoin: miter"/>
    </g>
    <g id="text_6">
     <!-- Stimuli -->
     <g style="fill: #262626" transform="translate(63.645313 16.894687) scale(0.06 -0.06)">
      <defs>
       <path id="ArialMT-53" d="M 288 1472 
L 859 1522 
Q 900 1178 1048 958 
Q 1197 738 1509 602 
Q 1822 466 2213 466 
Q 2559 466 2825 569 
Q 3091 672 3220 851 
Q 3350 1031 3350 1244 
Q 3350 1459 3225 1620 
Q 3100 1781 2813 1891 
Q 2628 1963 1997 2114 
Q 1366 2266 1113 2400 
Q 784 2572 623 2826 
Q 463 3081 463 3397 
Q 463 3744 659 4045 
Q 856 4347 1234 4503 
Q 1613 4659 2075 4659 
Q 2584 4659 2973 4495 
Q 3363 4331 3572 4012 
Q 3781 3694 3797 3291 
L 3216 3247 
Q 3169 3681 2898 3903 
Q 2628 4125 2100 4125 
Q 1550 4125 1298 3923 
Q 1047 3722 1047 3438 
Q 1047 3191 1225 3031 
Q 1400 2872 2139 2705 
Q 2878 2538 3153 2413 
Q 3553 2228 3743 1945 
Q 3934 1663 3934 1294 
Q 3934 928 3725 604 
Q 3516 281 3123 101 
Q 2731 -78 2241 -78 
Q 1619 -78 1198 103 
Q 778 284 539 648 
Q 300 1013 288 1472 
z
" transform="scale(0.015625)"/>
       <path id="ArialMT-69" d="M 425 3934 
L 425 4581 
L 988 4581 
L 988 3934 
L 425 3934 
z
M 425 0 
L 425 3319 
L 988 3319 
L 988 0 
L 425 0 
z
" transform="scale(0.015625)"/>
       <path id="ArialMT-6d" d="M 422 0 
L 422 3319 
L 925 3319 
L 925 2853 
Q 1081 3097 1340 3245 
Q 1600 3394 1931 3394 
Q 2300 3394 2536 3241 
Q 2772 3088 2869 2813 
Q 3263 3394 3894 3394 
Q 4388 3394 4653 3120 
Q 4919 2847 4919 2278 
L 4919 0 
L 4359 0 
L 4359 2091 
Q 4359 2428 4304 2576 
Q 4250 2725 4106 2815 
Q 3963 2906 3769 2906 
Q 3419 2906 3187 2673 
Q 2956 2441 2956 1928 
L 2956 0 
L 2394 0 
L 2394 2156 
Q 2394 2531 2256 2718 
Q 2119 2906 1806 2906 
Q 1569 2906 1367 2781 
Q 1166 2656 1075 2415 
Q 984 2175 984 1722 
L 984 0 
L 422 0 
z
" transform="scale(0.015625)"/>
       <path id="ArialMT-6c" d="M 409 0 
L 409 4581 
L 972 4581 
L 972 0 
L 409 0 
z
" transform="scale(0.015625)"/>
      </defs>
      <use xlink:href="#ArialMT-53"/>
      <use xlink:href="#ArialMT-74" x="66.699219"/>
      <use xlink:href="#ArialMT-69" x="94.482422"/>
      <use xlink:href="#ArialMT-6d" x="116.699219"/>
      <use xlink:href="#ArialMT-75" x="200"/>
      <use xlink:href="#ArialMT-6c" x="255.615234"/>
      <use xlink:href="#ArialMT-69" x="277.832031"/>
     </g>
    </g>
    <g id="patch_209">
     <path d="M 46.845312 25.381875 
L 58.845312 25.381875 
L 58.845312 21.181875 
L 46.845312 21.181875 
z
" style="fill: #0acc7b; fill-opacity: 0.5; stroke: #ffffff; stroke-width: 0.177545; stroke-linejoin: miter"/>
    </g>
    <g id="text_7">
     <!-- Response -->
     <g style="fill: #262626" transform="translate(63.645313 25.381875) scale(0.06 -0.06)">
      <defs>
       <path id="ArialMT-52" d="M 503 0 
L 503 4581 
L 2534 4581 
Q 3147 4581 3465 4457 
Q 3784 4334 3975 4021 
Q 4166 3709 4166 3331 
Q 4166 2844 3850 2509 
Q 3534 2175 2875 2084 
Q 3116 1969 3241 1856 
Q 3506 1613 3744 1247 
L 4541 0 
L 3778 0 
L 3172 953 
Q 2906 1366 2734 1584 
Q 2563 1803 2427 1890 
Q 2291 1978 2150 2013 
Q 2047 2034 1813 2034 
L 1109 2034 
L 1109 0 
L 503 0 
z
M 1109 2559 
L 2413 2559 
Q 2828 2559 3062 2645 
Q 3297 2731 3419 2920 
Q 3541 3109 3541 3331 
Q 3541 3656 3305 3865 
Q 3069 4075 2559 4075 
L 1109 4075 
L 1109 2559 
z
" transform="scale(0.015625)"/>
       <path id="ArialMT-65" d="M 2694 1069 
L 3275 997 
Q 3138 488 2766 206 
Q 2394 -75 1816 -75 
Q 1088 -75 661 373 
Q 234 822 234 1631 
Q 234 2469 665 2931 
Q 1097 3394 1784 3394 
Q 2450 3394 2872 2941 
Q 3294 2488 3294 1666 
Q 3294 1616 3291 1516 
L 816 1516 
Q 847 969 1125 678 
Q 1403 388 1819 388 
Q 2128 388 2347 550 
Q 2566 713 2694 1069 
z
M 847 1978 
L 2700 1978 
Q 2663 2397 2488 2606 
Q 2219 2931 1791 2931 
Q 1403 2931 1139 2672 
Q 875 2413 847 1978 
z
" transform="scale(0.015625)"/>
       <path id="ArialMT-73" d="M 197 991 
L 753 1078 
Q 800 744 1014 566 
Q 1228 388 1613 388 
Q 2000 388 2187 545 
Q 2375 703 2375 916 
Q 2375 1106 2209 1216 
Q 2094 1291 1634 1406 
Q 1016 1563 777 1677 
Q 538 1791 414 1992 
Q 291 2194 291 2438 
Q 291 2659 392 2848 
Q 494 3038 669 3163 
Q 800 3259 1026 3326 
Q 1253 3394 1513 3394 
Q 1903 3394 2198 3281 
Q 2494 3169 2634 2976 
Q 2775 2784 2828 2463 
L 2278 2388 
Q 2241 2644 2061 2787 
Q 1881 2931 1553 2931 
Q 1166 2931 1000 2803 
Q 834 2675 834 2503 
Q 834 2394 903 2306 
Q 972 2216 1119 2156 
Q 1203 2125 1616 2013 
Q 2213 1853 2448 1751 
Q 2684 1650 2818 1456 
Q 2953 1263 2953 975 
Q 2953 694 2789 445 
Q 2625 197 2315 61 
Q 2006 -75 1616 -75 
Q 969 -75 630 194 
Q 291 463 197 991 
z
" transform="scale(0.015625)"/>
       <path id="ArialMT-70" d="M 422 -1272 
L 422 3319 
L 934 3319 
L 934 2888 
Q 1116 3141 1344 3267 
Q 1572 3394 1897 3394 
Q 2322 3394 2647 3175 
Q 2972 2956 3137 2557 
Q 3303 2159 3303 1684 
Q 3303 1175 3120 767 
Q 2938 359 2589 142 
Q 2241 -75 1856 -75 
Q 1575 -75 1351 44 
Q 1128 163 984 344 
L 984 -1272 
L 422 -1272 
z
M 931 1641 
Q 931 1000 1190 694 
Q 1450 388 1819 388 
Q 2194 388 2461 705 
Q 2728 1022 2728 1688 
Q 2728 2322 2467 2637 
Q 2206 2953 1844 2953 
Q 1484 2953 1207 2617 
Q 931 2281 931 1641 
z
" transform="scale(0.015625)"/>
      </defs>
      <use xlink:href="#ArialMT-52"/>
      <use xlink:href="#ArialMT-65" x="72.216797"/>
      <use xlink:href="#ArialMT-73" x="127.832031"/>
      <use xlink:href="#ArialMT-70" x="177.832031"/>
      <use xlink:href="#ArialMT-6f" x="233.447266"/>
      <use xlink:href="#ArialMT-6e" x="289.0625"/>
      <use xlink:href="#ArialMT-73" x="344.677734"/>
      <use xlink:href="#ArialMT-65" x="394.677734"/>
     </g>
    </g>
   </g>
  </g>
  <g id="axes_2">
   <g id="patch_210">
    <path d="M 41.445312 175.48 
L 239.245313 175.48 
L 239.245313 98.9 
L 41.445312 98.9 
z
" style="fill: #ffffff"/>
   </g>
   <g id="matplotlib.axis_3">
    <g id="xtick_14">
     <g id="line2d_18">
      <path d="M 41.445312 175.48 
L 41.445312 98.9 
" clip-path="url(#p5eadb31119)" style="fill: none; stroke: #ebebeb; stroke-width: 0.5; stroke-linecap: round"/>
     </g>
     <g id="text_8">
      <!-- 5 -->
      <g style="fill: #262626" transform="translate(38.942891 188.922031) scale(0.09 -0.09)">
       <defs>
        <path id="ArialMT-35" d="M 266 1200 
L 856 1250 
Q 922 819 1161 601 
Q 1400 384 1738 384 
Q 2144 384 2425 690 
Q 2706 997 2706 1503 
Q 2706 1984 2436 2262 
Q 2166 2541 1728 2541 
Q 1456 2541 1237 2417 
Q 1019 2294 894 2097 
L 366 2166 
L 809 4519 
L 3088 4519 
L 3088 3981 
L 1259 3981 
L 1013 2750 
Q 1425 3038 1878 3038 
Q 2478 3038 2890 2622 
Q 3303 2206 3303 1553 
Q 3303 931 2941 478 
Q 2500 -78 1738 -78 
Q 1113 -78 717 272 
Q 322 622 266 1200 
z
" transform="scale(0.015625)"/>
       </defs>
       <use xlink:href="#ArialMT-35"/>
      </g>
     </g>
    </g>
    <g id="xtick_15">
     <g id="line2d_19">
      <path d="M 56.660697 175.48 
L 56.660697 98.9 
" clip-path="url(#p5eadb31119)" style="fill: none; stroke: #ebebeb; stroke-width: 0.5; stroke-linecap: round"/>
     </g>
     <g id="text_9">
      <!-- 10 -->
      <g style="fill: #262626" transform="translate(51.655853 188.922031) scale(0.09 -0.09)">
       <defs>
        <path id="ArialMT-31" d="M 2384 0 
L 1822 0 
L 1822 3584 
Q 1619 3391 1289 3197 
Q 959 3003 697 2906 
L 697 3450 
Q 1169 3672 1522 3987 
Q 1875 4303 2022 4600 
L 2384 4600 
L 2384 0 
z
" transform="scale(0.015625)"/>
       </defs>
       <use xlink:href="#ArialMT-31"/>
       <use xlink:href="#ArialMT-30" x="55.615234"/>
      </g>
     </g>
    </g>
    <g id="xtick_16">
     <g id="line2d_20">
      <path d="M 71.876082 175.48 
L 71.876082 98.9 
" clip-path="url(#p5eadb31119)" style="fill: none; stroke: #ebebeb; stroke-width: 0.5; stroke-linecap: round"/>
     </g>
     <g id="text_10">
      <!-- 15 -->
      <g style="fill: #262626" transform="translate(66.871238 188.922031) scale(0.09 -0.09)">
       <use xlink:href="#ArialMT-31"/>
       <use xlink:href="#ArialMT-35" x="55.615234"/>
      </g>
     </g>
    </g>
    <g id="xtick_17">
     <g id="line2d_21">
      <path d="M 87.091466 175.48 
L 87.091466 98.9 
" clip-path="url(#p5eadb31119)" style="fill: none; stroke: #ebebeb; stroke-width: 0.5; stroke-linecap: round"/>
     </g>
     <g id="text_11">
      <!-- 20 -->
      <g style="fill: #262626" transform="translate(82.086623 188.922031) scale(0.09 -0.09)">
       <use xlink:href="#ArialMT-32"/>
       <use xlink:href="#ArialMT-30" x="55.615234"/>
      </g>
     </g>
    </g>
    <g id="xtick_18">
     <g id="line2d_22">
      <path d="M 102.306851 175.48 
L 102.306851 98.9 
" clip-path="url(#p5eadb31119)" style="fill: none; stroke: #ebebeb; stroke-width: 0.5; stroke-linecap: round"/>
     </g>
     <g id="text_12">
      <!-- 25 -->
      <g style="fill: #262626" transform="translate(97.302007 188.922031) scale(0.09 -0.09)">
       <use xlink:href="#ArialMT-32"/>
       <use xlink:href="#ArialMT-35" x="55.615234"/>
      </g>
     </g>
    </g>
    <g id="xtick_19">
     <g id="line2d_23">
      <path d="M 117.522236 175.48 
L 117.522236 98.9 
" clip-path="url(#p5eadb31119)" style="fill: none; stroke: #ebebeb; stroke-width: 0.5; stroke-linecap: round"/>
     </g>
     <g id="text_13">
      <!-- 30 -->
      <g style="fill: #262626" transform="translate(112.517392 188.922031) scale(0.09 -0.09)">
       <defs>
        <path id="ArialMT-33" d="M 269 1209 
L 831 1284 
Q 928 806 1161 595 
Q 1394 384 1728 384 
Q 2125 384 2398 659 
Q 2672 934 2672 1341 
Q 2672 1728 2419 1979 
Q 2166 2231 1775 2231 
Q 1616 2231 1378 2169 
L 1441 2663 
Q 1497 2656 1531 2656 
Q 1891 2656 2178 2843 
Q 2466 3031 2466 3422 
Q 2466 3731 2256 3934 
Q 2047 4138 1716 4138 
Q 1388 4138 1169 3931 
Q 950 3725 888 3313 
L 325 3413 
Q 428 3978 793 4289 
Q 1159 4600 1703 4600 
Q 2078 4600 2393 4439 
Q 2709 4278 2876 4000 
Q 3044 3722 3044 3409 
Q 3044 3113 2884 2869 
Q 2725 2625 2413 2481 
Q 2819 2388 3044 2092 
Q 3269 1797 3269 1353 
Q 3269 753 2831 336 
Q 2394 -81 1725 -81 
Q 1122 -81 723 278 
Q 325 638 269 1209 
z
" transform="scale(0.015625)"/>
       </defs>
       <use xlink:href="#ArialMT-33"/>
       <use xlink:href="#ArialMT-30" x="55.615234"/>
      </g>
     </g>
    </g>
    <g id="xtick_20">
     <g id="line2d_24">
      <path d="M 132.73762 175.48 
L 132.73762 98.9 
" clip-path="url(#p5eadb31119)" style="fill: none; stroke: #ebebeb; stroke-width: 0.5; stroke-linecap: round"/>
     </g>
     <g id="text_14">
      <!-- 35 -->
      <g style="fill: #262626" transform="translate(127.732776 188.922031) scale(0.09 -0.09)">
       <use xlink:href="#ArialMT-33"/>
       <use xlink:href="#ArialMT-35" x="55.615234"/>
      </g>
     </g>
    </g>
    <g id="xtick_21">
     <g id="line2d_25">
      <path d="M 147.953005 175.48 
L 147.953005 98.9 
" clip-path="url(#p5eadb31119)" style="fill: none; stroke: #ebebeb; stroke-width: 0.5; stroke-linecap: round"/>
     </g>
     <g id="text_15">
      <!-- 40 -->
      <g style="fill: #262626" transform="translate(142.948161 188.922031) scale(0.09 -0.09)">
       <use xlink:href="#ArialMT-34"/>
       <use xlink:href="#ArialMT-30" x="55.615234"/>
      </g>
     </g>
    </g>
    <g id="xtick_22">
     <g id="line2d_26">
      <path d="M 163.168389 175.48 
L 163.168389 98.9 
" clip-path="url(#p5eadb31119)" style="fill: none; stroke: #ebebeb; stroke-width: 0.5; stroke-linecap: round"/>
     </g>
     <g id="text_16">
      <!-- 45 -->
      <g style="fill: #262626" transform="translate(158.163546 188.922031) scale(0.09 -0.09)">
       <use xlink:href="#ArialMT-34"/>
       <use xlink:href="#ArialMT-35" x="55.615234"/>
      </g>
     </g>
    </g>
    <g id="xtick_23">
     <g id="line2d_27">
      <path d="M 178.383774 175.48 
L 178.383774 98.9 
" clip-path="url(#p5eadb31119)" style="fill: none; stroke: #ebebeb; stroke-width: 0.5; stroke-linecap: round"/>
     </g>
     <g id="text_17">
      <!-- 50 -->
      <g style="fill: #262626" transform="translate(173.37893 188.922031) scale(0.09 -0.09)">
       <use xlink:href="#ArialMT-35"/>
       <use xlink:href="#ArialMT-30" x="55.615234"/>
      </g>
     </g>
    </g>
    <g id="xtick_24">
     <g id="line2d_28">
      <path d="M 193.599159 175.48 
L 193.599159 98.9 
" clip-path="url(#p5eadb31119)" style="fill: none; stroke: #ebebeb; stroke-width: 0.5; stroke-linecap: round"/>
     </g>
     <g id="text_18">
      <!-- 55 -->
      <g style="fill: #262626" transform="translate(188.594315 188.922031) scale(0.09 -0.09)">
       <use xlink:href="#ArialMT-35"/>
       <use xlink:href="#ArialMT-35" x="55.615234"/>
      </g>
     </g>
    </g>
    <g id="xtick_25">
     <g id="line2d_29">
      <path d="M 208.814543 175.48 
L 208.814543 98.9 
" clip-path="url(#p5eadb31119)" style="fill: none; stroke: #ebebeb; stroke-width: 0.5; stroke-linecap: round"/>
     </g>
     <g id="text_19">
      <!-- 60 -->
      <g style="fill: #262626" transform="translate(203.8097 188.922031) scale(0.09 -0.09)">
       <use xlink:href="#ArialMT-36"/>
       <use xlink:href="#ArialMT-30" x="55.615234"/>
      </g>
     </g>
    </g>
    <g id="xtick_26">
     <g id="line2d_30">
      <path d="M 224.029928 175.48 
L 224.029928 98.9 
" clip-path="url(#p5eadb31119)" style="fill: none; stroke: #ebebeb; stroke-width: 0.5; stroke-linecap: round"/>
     </g>
     <g id="text_20">
      <!-- 65 -->
      <g style="fill: #262626" transform="translate(219.025084 188.922031) scale(0.09 -0.09)">
       <use xlink:href="#ArialMT-36"/>
       <use xlink:href="#ArialMT-35" x="55.615234"/>
      </g>
     </g>
    </g>
    <g id="text_21">
     <!-- Stimuli Value -->
     <g style="fill: #262626" transform="translate(114.416172 201.152812) scale(0.09 -0.09)">
      <defs>
       <path id="ArialMT-20" transform="scale(0.015625)"/>
       <path id="ArialMT-56" d="M 1803 0 
L 28 4581 
L 684 4581 
L 1875 1253 
Q 2019 853 2116 503 
Q 2222 878 2363 1253 
L 3600 4581 
L 4219 4581 
L 2425 0 
L 1803 0 
z
" transform="scale(0.015625)"/>
       <path id="ArialMT-61" d="M 2588 409 
Q 2275 144 1986 34 
Q 1697 -75 1366 -75 
Q 819 -75 525 192 
Q 231 459 231 875 
Q 231 1119 342 1320 
Q 453 1522 633 1644 
Q 813 1766 1038 1828 
Q 1203 1872 1538 1913 
Q 2219 1994 2541 2106 
Q 2544 2222 2544 2253 
Q 2544 2597 2384 2738 
Q 2169 2928 1744 2928 
Q 1347 2928 1158 2789 
Q 969 2650 878 2297 
L 328 2372 
Q 403 2725 575 2942 
Q 747 3159 1072 3276 
Q 1397 3394 1825 3394 
Q 2250 3394 2515 3294 
Q 2781 3194 2906 3042 
Q 3031 2891 3081 2659 
Q 3109 2516 3109 2141 
L 3109 1391 
Q 3109 606 3145 398 
Q 3181 191 3288 0 
L 2700 0 
Q 2613 175 2588 409 
z
M 2541 1666 
Q 2234 1541 1622 1453 
Q 1275 1403 1131 1340 
Q 988 1278 909 1158 
Q 831 1038 831 891 
Q 831 666 1001 516 
Q 1172 366 1500 366 
Q 1825 366 2078 508 
Q 2331 650 2450 897 
Q 2541 1088 2541 1459 
L 2541 1666 
z
" transform="scale(0.015625)"/>
      </defs>
      <use xlink:href="#ArialMT-53"/>
      <use xlink:href="#ArialMT-74" x="66.699219"/>
      <use xlink:href="#ArialMT-69" x="94.482422"/>
      <use xlink:href="#ArialMT-6d" x="116.699219"/>
      <use xlink:href="#ArialMT-75" x="200"/>
      <use xlink:href="#ArialMT-6c" x="255.615234"/>
      <use xlink:href="#ArialMT-69" x="277.832031"/>
      <use xlink:href="#ArialMT-20" x="300.048828"/>
      <use xlink:href="#ArialMT-56" x="327.832031"/>
      <use xlink:href="#ArialMT-61" x="387.15625"/>
      <use xlink:href="#ArialMT-6c" x="442.771484"/>
      <use xlink:href="#ArialMT-75" x="464.988281"/>
      <use xlink:href="#ArialMT-65" x="520.603516"/>
     </g>
    </g>
   </g>
   <g id="matplotlib.axis_4">
    <g id="ytick_5">
     <g id="line2d_31">
      <path d="M 41.445312 153.956488 
L 239.245313 153.956488 
" clip-path="url(#p5eadb31119)" style="fill: none; stroke: #ebebeb; stroke-width: 0.5; stroke-linecap: round"/>
     </g>
     <g id="text_22">
      <!-- 2 -->
      <g style="fill: #262626" transform="translate(29.440469 157.177503) scale(0.09 -0.09)">
       <use xlink:href="#ArialMT-32"/>
      </g>
     </g>
    </g>
    <g id="ytick_6">
     <g id="line2d_32">
      <path d="M 41.445312 130.062717 
L 239.245313 130.062717 
" clip-path="url(#p5eadb31119)" style="fill: none; stroke: #ebebeb; stroke-width: 0.5; stroke-linecap: round"/>
     </g>
     <g id="text_23">
      <!-- 4 -->
      <g style="fill: #262626" transform="translate(29.440469 133.283732) scale(0.09 -0.09)">
       <use xlink:href="#ArialMT-34"/>
      </g>
     </g>
    </g>
    <g id="ytick_7">
     <g id="line2d_33">
      <path d="M 41.445312 106.168946 
L 239.245313 106.168946 
" clip-path="url(#p5eadb31119)" style="fill: none; stroke: #ebebeb; stroke-width: 0.5; stroke-linecap: round"/>
     </g>
     <g id="text_24">
      <!-- 6 -->
      <g style="fill: #262626" transform="translate(29.440469 109.389962) scale(0.09 -0.09)">
       <use xlink:href="#ArialMT-36"/>
      </g>
     </g>
    </g>
    <g id="text_25">
     <!-- Absolute Error -->
     <g style="fill: #262626" transform="translate(23.651719 165.950625) rotate(-90) scale(0.09 -0.09)">
      <defs>
       <path id="ArialMT-41" d="M -9 0 
L 1750 4581 
L 2403 4581 
L 4278 0 
L 3588 0 
L 3053 1388 
L 1138 1388 
L 634 0 
L -9 0 
z
M 1313 1881 
L 2866 1881 
L 2388 3150 
Q 2169 3728 2063 4100 
Q 1975 3659 1816 3225 
L 1313 1881 
z
" transform="scale(0.015625)"/>
       <path id="ArialMT-62" d="M 941 0 
L 419 0 
L 419 4581 
L 981 4581 
L 981 2947 
Q 1338 3394 1891 3394 
Q 2197 3394 2470 3270 
Q 2744 3147 2920 2923 
Q 3097 2700 3197 2384 
Q 3297 2069 3297 1709 
Q 3297 856 2875 390 
Q 2453 -75 1863 -75 
Q 1275 -75 941 416 
L 941 0 
z
M 934 1684 
Q 934 1088 1097 822 
Q 1363 388 1816 388 
Q 2184 388 2453 708 
Q 2722 1028 2722 1663 
Q 2722 2313 2464 2622 
Q 2206 2931 1841 2931 
Q 1472 2931 1203 2611 
Q 934 2291 934 1684 
z
" transform="scale(0.015625)"/>
       <path id="ArialMT-45" d="M 506 0 
L 506 4581 
L 3819 4581 
L 3819 4041 
L 1113 4041 
L 1113 2638 
L 3647 2638 
L 3647 2100 
L 1113 2100 
L 1113 541 
L 3925 541 
L 3925 0 
L 506 0 
z
" transform="scale(0.015625)"/>
       <path id="ArialMT-72" d="M 416 0 
L 416 3319 
L 922 3319 
L 922 2816 
Q 1116 3169 1280 3281 
Q 1444 3394 1641 3394 
Q 1925 3394 2219 3213 
L 2025 2691 
Q 1819 2813 1613 2813 
Q 1428 2813 1281 2702 
Q 1134 2591 1072 2394 
Q 978 2094 978 1738 
L 978 0 
L 416 0 
z
" transform="scale(0.015625)"/>
      </defs>
      <use xlink:href="#ArialMT-41"/>
      <use xlink:href="#ArialMT-62" x="66.699219"/>
      <use xlink:href="#ArialMT-73" x="122.314453"/>
      <use xlink:href="#ArialMT-6f" x="172.314453"/>
      <use xlink:href="#ArialMT-6c" x="227.929688"/>
      <use xlink:href="#ArialMT-75" x="250.146484"/>
      <use xlink:href="#ArialMT-74" x="305.761719"/>
      <use xlink:href="#ArialMT-65" x="333.544922"/>
      <use xlink:href="#ArialMT-20" x="389.160156"/>
      <use xlink:href="#ArialMT-45" x="416.943359"/>
      <use xlink:href="#ArialMT-72" x="483.642578"/>
      <use xlink:href="#ArialMT-72" x="516.943359"/>
      <use xlink:href="#ArialMT-6f" x="550.244141"/>
      <use xlink:href="#ArialMT-72" x="605.859375"/>
     </g>
    </g>
   </g>
   <g id="PolyCollection_1">
    <defs>
     <path id="m06f6b4f899" d="M 71.876082 -67.955472 
L 71.876082 -54.193927 
L 74.919159 -59.257778 
L 77.962236 -59.248482 
L 81.005313 -63.651878 
L 84.048389 -59.575407 
L 87.091466 -52.25967 
L 90.134543 -54.842728 
L 93.17762 -68.729305 
L 96.220697 -57.353792 
L 99.263774 -51.406321 
L 102.306851 -48.774273 
L 105.349928 -53.032726 
L 108.393005 -56.185075 
L 111.436082 -63.810746 
L 114.479159 -59.639596 
L 117.522236 -60.639846 
L 120.565313 -73.246721 
L 123.608389 -65.250327 
L 126.651466 -64.085435 
L 129.694543 -63.197377 
L 132.73762 -58.357236 
L 135.780697 -69.838658 
L 138.823774 -61.660731 
L 141.866851 -57.590591 
L 144.909928 -66.140813 
L 147.953005 -51.870922 
L 150.996082 -62.012824 
L 154.039159 -60.050244 
L 157.082236 -61.699022 
L 160.125313 -52.880617 
L 163.168389 -55.078882 
L 166.211466 -50.506571 
L 169.254543 -52.257332 
L 172.29762 -47.838621 
L 175.340697 -48.220485 
L 178.383774 -38.142472 
L 181.426851 -42.489865 
L 184.469928 -52.558342 
L 187.513005 -50.211632 
L 190.556082 -52.558342 
L 193.599159 -58.89003 
L 193.599159 -83.910866 
L 193.599159 -83.910866 
L 190.556082 -67.278611 
L 187.513005 -65.423547 
L 184.469928 -71.124015 
L 181.426851 -57.350625 
L 178.383774 -45.202359 
L 175.340697 -65.703866 
L 172.29762 -63.553685 
L 169.254543 -64.208309 
L 166.211466 -60.814493 
L 163.168389 -68.574438 
L 160.125313 -64.827503 
L 157.082236 -82.230817 
L 154.039159 -72.699887 
L 150.996082 -86.780757 
L 147.953005 -74.113699 
L 144.909928 -87.758986 
L 141.866851 -74.456782 
L 138.823774 -84.316257 
L 135.780697 -94.707685 
L 132.73762 -80.621886 
L 129.694543 -80.598276 
L 126.651466 -81.813071 
L 123.608389 -80.742562 
L 120.565313 -98.212511 
L 117.522236 -80.483825 
L 114.479159 -74.177372 
L 111.436082 -77.409861 
L 108.393005 -69.806757 
L 105.349928 -67.265811 
L 102.306851 -59.290978 
L 99.263774 -63.356051 
L 96.220697 -70.858967 
L 93.17762 -85.096538 
L 90.134543 -65.853327 
L 87.091466 -64.718564 
L 84.048389 -72.975292 
L 81.005313 -81.080642 
L 77.962236 -71.526329 
L 74.919159 -77.363644 
L 71.876082 -67.955472 
z
" style="stroke: #0acc7b; stroke-opacity: 0.2"/>
    </defs>
    <g clip-path="url(#p5eadb31119)">
     <use xlink:href="#m06f6b4f899" x="0" y="210.141562" style="fill: #0acc7b; fill-opacity: 0.2; stroke: #0acc7b; stroke-opacity: 0.2"/>
    </g>
   </g>
   <g id="PolyCollection_2">
    <defs>
     <path id="m5b6fb0104f" d="M 71.876082 -73.884164 
L 71.876082 -58.987431 
L 74.919159 -60.891424 
L 77.962236 -60.034092 
L 81.005313 -64.026333 
L 84.048389 -56.848791 
L 87.091466 -58.233779 
L 90.134543 -56.185075 
L 93.17762 -58.623215 
L 96.220697 -52.946349 
L 99.263774 -50.848977 
L 102.306851 -47.70664 
L 105.349928 -56.436588 
L 108.393005 -58.254446 
L 111.436082 -61.966739 
L 114.479159 -59.598471 
L 117.522236 -55.794874 
L 120.565313 -62.379756 
L 123.608389 -68.13196 
L 126.651466 -75.300092 
L 129.694543 -68.12672 
L 132.73762 -76.49478 
L 135.780697 -70.976457 
L 138.823774 -73.519771 
L 141.866851 -68.714735 
L 144.909928 -74.542484 
L 147.953005 -74.456782 
L 150.996082 -76.089913 
L 154.039159 -70.780187 
L 157.082236 -66.339927 
L 160.125313 -62.025774 
L 163.168389 -60.247016 
L 166.211466 -59.764163 
L 169.254543 -61.646508 
L 172.29762 -56.728115 
L 175.340697 -53.979496 
L 178.383774 -41.707107 
L 181.426851 -54.046369 
L 184.469928 -53.945034 
L 187.513005 -62.720306 
L 190.556082 -67.689483 
L 193.599159 -63.346569 
L 193.599159 -90.963786 
L 193.599159 -90.963786 
L 190.556082 -97.34652 
L 187.513005 -88.619447 
L 184.469928 -79.332165 
L 181.426851 -76.238775 
L 178.383774 -53.832759 
L 175.340697 -77.51486 
L 172.29762 -78.277762 
L 169.254543 -82.13115 
L 166.211466 -79.879731 
L 163.168389 -79.123095 
L 160.125313 -85.654059 
L 157.082236 -96.505813 
L 154.039159 -101.589877 
L 150.996082 -101.855363 
L 147.953005 -101.170369 
L 144.909928 -107.760653 
L 141.866851 -86.197982 
L 138.823774 -92.494236 
L 135.780697 -96.875598 
L 132.73762 -102.067088 
L 129.694543 -83.222763 
L 126.651466 -99.602048 
L 123.608389 -88.193711 
L 120.565313 -84.730388 
L 117.522236 -70.829644 
L 114.479159 -72.828935 
L 111.436082 -79.953089 
L 108.393005 -70.082472 
L 105.349928 -69.773085 
L 102.306851 -57.177437 
L 99.263774 -61.627841 
L 96.220697 -63.281649 
L 93.17762 -71.911077 
L 90.134543 -66.709843 
L 87.091466 -76.345444 
L 84.048389 -72.280184 
L 81.005313 -77.047546 
L 77.962236 -74.880987 
L 74.919159 -79.359317 
L 71.876082 -73.884164 
z
" style="stroke: #5688c7; stroke-opacity: 0.2"/>
    </defs>
    <g clip-path="url(#p5eadb31119)">
     <use xlink:href="#m5b6fb0104f" x="0" y="210.141562" style="fill: #5688c7; fill-opacity: 0.2; stroke: #5688c7; stroke-opacity: 0.2"/>
    </g>
   </g>
   <g id="line2d_34">
    <path d="M 71.876082 149.431152 
L 74.919159 143.095683 
L 77.962236 144.592713 
L 81.005313 138.2762 
L 84.048389 144.108379 
L 87.091466 152.07912 
L 90.134543 149.795213 
L 93.17762 133.049438 
L 96.220697 146.424755 
L 99.263774 153.160029 
L 102.306851 156.196529 
L 105.349928 150.589638 
L 108.393005 147.480606 
L 111.436082 139.97609 
L 114.479159 143.592924 
L 117.522236 140.389686 
L 120.565313 125.15596 
L 123.608389 137.58483 
L 126.651466 138.34846 
L 129.694543 139.152738 
L 132.73762 141.738082 
L 135.780697 128.599833 
L 138.823774 137.778414 
L 141.866851 144.117876 
L 144.909928 133.476113 
L 147.953005 146.987471 
L 150.996082 136.764628 
L 154.039159 144.469255 
L 157.082236 138.333637 
L 160.125313 152.177164 
L 163.168389 148.646761 
L 166.211466 154.553832 
L 169.254543 152.483584 
L 172.29762 154.774767 
L 175.340697 154.177726 
L 178.383774 168.629508 
L 181.426851 161.823949 
L 184.469928 148.836394 
L 187.513005 153.141927 
L 190.556082 150.756429 
L 193.599159 139.755473 
" clip-path="url(#p5eadb31119)" style="fill: none; stroke: #0acc7b; stroke-linecap: round"/>
   </g>
   <g id="line2d_35">
    <path d="M 71.876082 144.369481 
L 74.919159 140.380481 
L 77.962236 142.780369 
L 81.005313 139.69155 
L 84.048389 146.157826 
L 87.091466 143.502963 
L 90.134543 148.695474 
L 93.17762 145.179184 
L 96.220697 152.71202 
L 99.263774 154.276493 
L 102.306851 157.920431 
L 105.349928 147.542896 
L 108.393005 146.398254 
L 111.436082 139.242955 
L 114.479159 144.142975 
L 117.522236 147.40497 
L 120.565313 137.142353 
L 123.608389 132.091433 
L 126.651466 124.089274 
L 129.694543 134.673795 
L 132.73762 121.460959 
L 135.780697 126.364871 
L 138.823774 127.485938 
L 141.866851 133.267979 
L 144.909928 118.989994 
L 147.953005 123.386516 
L 150.996082 121.301667 
L 154.039159 125.283963 
L 157.082236 130.958733 
L 160.125313 136.965362 
L 163.168389 140.814914 
L 166.211466 141.611373 
L 169.254543 138.766876 
L 172.29762 143.819736 
L 175.340697 145.501769 
L 178.383774 162.502435 
L 181.426851 145.636335 
L 184.469928 144.996324 
L 187.513005 135.182811 
L 190.556082 127.850331 
L 193.599159 133.248553 
" clip-path="url(#p5eadb31119)" style="fill: none; stroke: #5688c7; stroke-linecap: round"/>
   </g>
   <g id="patch_211">
    <path d="M 41.445312 175.48 
L 41.445312 98.9 
" style="fill: none; stroke: #cccccc; stroke-width: 0.8; stroke-linejoin: miter; stroke-linecap: square"/>
   </g>
   <g id="patch_212">
    <path d="M 239.245313 175.48 
L 239.245313 98.9 
" style="fill: none; stroke: #cccccc; stroke-width: 0.8; stroke-linejoin: miter; stroke-linecap: square"/>
   </g>
   <g id="patch_213">
    <path d="M 41.445312 175.48 
L 239.245313 175.48 
" style="fill: none; stroke: #cccccc; stroke-width: 0.8; stroke-linejoin: miter; stroke-linecap: square"/>
   </g>
   <g id="patch_214">
    <path d="M 41.445312 98.9 
L 239.245313 98.9 
" style="fill: none; stroke: #cccccc; stroke-width: 0.8; stroke-linejoin: miter; stroke-linecap: square"/>
   </g>
   <g id="legend_2">
    <g id="patch_215">
     <path d="M 45.645313 120.674375 
L 97.5275 120.674375 
Q 98.7275 120.674375 98.7275 119.474375 
L 98.7275 103.1 
Q 98.7275 101.9 97.5275 101.9 
L 45.645313 101.9 
Q 44.445312 101.9 44.445312 103.1 
L 44.445312 119.474375 
Q 44.445312 120.674375 45.645313 120.674375 
z
" style="fill: #ffffff; opacity: 0.8; stroke: #cccccc; stroke-linejoin: miter"/>
    </g>
    <g id="line2d_36">
     <path d="M 46.845312 106.494688 
L 52.845312 106.494688 
L 58.845312 106.494688 
" style="fill: none; stroke: #0acc7b; stroke-linecap: round"/>
    </g>
    <g id="text_26">
     <!-- Pie -->
     <g style="fill: #262626" transform="translate(63.645313 108.594688) scale(0.06 -0.06)">
      <defs>
       <path id="ArialMT-50" d="M 494 0 
L 494 4581 
L 2222 4581 
Q 2678 4581 2919 4538 
Q 3256 4481 3484 4323 
Q 3713 4166 3852 3881 
Q 3991 3597 3991 3256 
Q 3991 2672 3619 2267 
Q 3247 1863 2275 1863 
L 1100 1863 
L 1100 0 
L 494 0 
z
M 1100 2403 
L 2284 2403 
Q 2872 2403 3119 2622 
Q 3366 2841 3366 3238 
Q 3366 3525 3220 3729 
Q 3075 3934 2838 4000 
Q 2684 4041 2272 4041 
L 1100 4041 
L 1100 2403 
z
" transform="scale(0.015625)"/>
      </defs>
      <use xlink:href="#ArialMT-50"/>
      <use xlink:href="#ArialMT-69" x="66.699219"/>
      <use xlink:href="#ArialMT-65" x="88.916016"/>
     </g>
    </g>
    <g id="line2d_37">
     <path d="M 46.845312 114.981875 
L 52.845312 114.981875 
L 58.845312 114.981875 
" style="fill: none; stroke: #5688c7; stroke-linecap: round"/>
    </g>
    <g id="text_27">
     <!-- Stacked Bar -->
     <g style="fill: #262626" transform="translate(63.645313 117.081875) scale(0.06 -0.06)">
      <defs>
       <path id="ArialMT-63" d="M 2588 1216 
L 3141 1144 
Q 3050 572 2676 248 
Q 2303 -75 1759 -75 
Q 1078 -75 664 370 
Q 250 816 250 1647 
Q 250 2184 428 2587 
Q 606 2991 970 3192 
Q 1334 3394 1763 3394 
Q 2303 3394 2647 3120 
Q 2991 2847 3088 2344 
L 2541 2259 
Q 2463 2594 2264 2762 
Q 2066 2931 1784 2931 
Q 1359 2931 1093 2626 
Q 828 2322 828 1663 
Q 828 994 1084 691 
Q 1341 388 1753 388 
Q 2084 388 2306 591 
Q 2528 794 2588 1216 
z
" transform="scale(0.015625)"/>
       <path id="ArialMT-6b" d="M 425 0 
L 425 4581 
L 988 4581 
L 988 1969 
L 2319 3319 
L 3047 3319 
L 1778 2088 
L 3175 0 
L 2481 0 
L 1384 1697 
L 988 1316 
L 988 0 
L 425 0 
z
" transform="scale(0.015625)"/>
       <path id="ArialMT-64" d="M 2575 0 
L 2575 419 
Q 2259 -75 1647 -75 
Q 1250 -75 917 144 
Q 584 363 401 755 
Q 219 1147 219 1656 
Q 219 2153 384 2558 
Q 550 2963 881 3178 
Q 1213 3394 1622 3394 
Q 1922 3394 2156 3267 
Q 2391 3141 2538 2938 
L 2538 4581 
L 3097 4581 
L 3097 0 
L 2575 0 
z
M 797 1656 
Q 797 1019 1065 703 
Q 1334 388 1700 388 
Q 2069 388 2326 689 
Q 2584 991 2584 1609 
Q 2584 2291 2321 2609 
Q 2059 2928 1675 2928 
Q 1300 2928 1048 2622 
Q 797 2316 797 1656 
z
" transform="scale(0.015625)"/>
       <path id="ArialMT-42" d="M 469 0 
L 469 4581 
L 2188 4581 
Q 2713 4581 3030 4442 
Q 3347 4303 3526 4014 
Q 3706 3725 3706 3409 
Q 3706 3116 3547 2856 
Q 3388 2597 3066 2438 
Q 3481 2316 3704 2022 
Q 3928 1728 3928 1328 
Q 3928 1006 3792 729 
Q 3656 453 3456 303 
Q 3256 153 2954 76 
Q 2653 0 2216 0 
L 469 0 
z
M 1075 2656 
L 2066 2656 
Q 2469 2656 2644 2709 
Q 2875 2778 2992 2937 
Q 3109 3097 3109 3338 
Q 3109 3566 3000 3739 
Q 2891 3913 2687 3977 
Q 2484 4041 1991 4041 
L 1075 4041 
L 1075 2656 
z
M 1075 541 
L 2216 541 
Q 2509 541 2628 563 
Q 2838 600 2978 687 
Q 3119 775 3209 942 
Q 3300 1109 3300 1328 
Q 3300 1584 3169 1773 
Q 3038 1963 2805 2039 
Q 2572 2116 2134 2116 
L 1075 2116 
L 1075 541 
z
" transform="scale(0.015625)"/>
      </defs>
      <use xlink:href="#ArialMT-53"/>
      <use xlink:href="#ArialMT-74" x="66.699219"/>
      <use xlink:href="#ArialMT-61" x="94.482422"/>
      <use xlink:href="#ArialMT-63" x="150.097656"/>
      <use xlink:href="#ArialMT-6b" x="200.097656"/>
      <use xlink:href="#ArialMT-65" x="250.097656"/>
      <use xlink:href="#ArialMT-64" x="305.712891"/>
      <use xlink:href="#ArialMT-20" x="361.328125"/>
      <use xlink:href="#ArialMT-42" x="389.111328"/>
      <use xlink:href="#ArialMT-61" x="455.810547"/>
      <use xlink:href="#ArialMT-72" x="511.425781"/>
     </g>
    </g>
   </g>
  </g>
 </g>
 <defs>
  <clipPath id="p07ed4db525">
   <rect x="41.445312" y="7.2" width="197.8" height="76.58"/>
  </clipPath>
  <clipPath id="p5eadb31119">
   <rect x="41.445312" y="98.9" width="197.8" height="76.58"/>
  </clipPath>
 </defs>
</svg>
