<?xml version="1.0" encoding="utf-8" standalone="no"?>
<!DOCTYPE svg PUBLIC "-//W3C//DTD SVG 1.1//EN"
  "http://www.w3.org/Graphics/SVG/1.1/DTD/svg11.dtd">
<svg xmlns:xlink="http://www.w3.org/1999/xlink" width="231.954781pt" height="103.399963pt" viewBox="0 0 231.954781 103.399963" xmlns="http://www.w3.org/2000/svg" version="1.1">
 <metadata>
  <rdf:RDF xmlns:dc="http://purl.org/dc/elements/1.1/" xmlns:cc="http://creativecommons.org/ns#" xmlns:rdf="http://www.w3.org/1999/02/22-rdf-syntax-ns#">
   <cc:Work>
    <dc:type rdf:resource="http://purl.org/dc/dcmitype/StillImage"/>
    <dc:date>2025-04-30T12:58:42.604582</dc:date>
    <dc:format>image/svg+xml</dc:format>
    <dc:creator>
     <cc:Agent>
      <dc:title>Matplotlib v3.9.2, https://matplotlib.org/</dc:title>
     </cc:Agent>
    </dc:creator>
   </cc:Work>
  </rdf:RDF>
 </metadata>
 <defs>
  <style type="text/css">*{stroke-linejoin: round; stroke-linecap: butt}</style>
 </defs>
 <g id="figure_1">
  <g id="patch_1">
   <path d="M 0 103.399963 
L 231.954781 103.399963 
L 231.954781 0 
L 0 0 
z
" style="fill: #ffffff"/>
  </g>
  <g id="axes_1">
   <g id="patch_2">
    <path d="M 38.940781 68.7384 
L 224.754781 68.7384 
L 224.754781 7.2 
L 38.940781 7.2 
z
" style="fill: #ffffff"/>
   </g>
   <g id="matplotlib.axis_1">
    <g id="xtick_1">
     <g id="line2d_1">
      <path d="M 68.502099 68.7384 
L 68.502099 7.2 
" clip-path="url(#pc59e9d10d6)" style="fill: none; stroke: #cccccc; stroke-width: 0.8; stroke-linecap: round"/>
     </g>
     <g id="text_1">
      <!-- 20 -->
      <g style="fill: #262626" transform="translate(63.497256 82.180431) scale(0.09 -0.09)">
       <defs>
        <path id="ArialMT-32" d="M 3222 541 
L 3222 0 
L 194 0 
Q 188 203 259 391 
Q 375 700 629 1000 
Q 884 1300 1366 1694 
Q 2113 2306 2375 2664 
Q 2638 3022 2638 3341 
Q 2638 3675 2398 3904 
Q 2159 4134 1775 4134 
Q 1369 4134 1125 3890 
Q 881 3647 878 3216 
L 300 3275 
Q 359 3922 746 4261 
Q 1134 4600 1788 4600 
Q 2447 4600 2831 4234 
Q 3216 3869 3216 3328 
Q 3216 3053 3103 2787 
Q 2991 2522 2730 2228 
Q 2469 1934 1863 1422 
Q 1356 997 1212 845 
Q 1069 694 975 541 
L 3222 541 
z
" transform="scale(0.015625)"/>
        <path id="ArialMT-30" d="M 266 2259 
Q 266 3072 433 3567 
Q 600 4063 929 4331 
Q 1259 4600 1759 4600 
Q 2128 4600 2406 4451 
Q 2684 4303 2865 4023 
Q 3047 3744 3150 3342 
Q 3253 2941 3253 2259 
Q 3253 1453 3087 958 
Q 2922 463 2592 192 
Q 2263 -78 1759 -78 
Q 1097 -78 719 397 
Q 266 969 266 2259 
z
M 844 2259 
Q 844 1131 1108 757 
Q 1372 384 1759 384 
Q 2147 384 2411 759 
Q 2675 1134 2675 2259 
Q 2675 3391 2411 3762 
Q 2147 4134 1753 4134 
Q 1366 4134 1134 3806 
Q 844 3388 844 2259 
z
" transform="scale(0.015625)"/>
       </defs>
       <use xlink:href="#ArialMT-32"/>
       <use xlink:href="#ArialMT-30" x="55.615234"/>
      </g>
     </g>
    </g>
    <g id="xtick_2">
     <g id="line2d_2">
      <path d="M 110.732554 68.7384 
L 110.732554 7.2 
" clip-path="url(#pc59e9d10d6)" style="fill: none; stroke: #cccccc; stroke-width: 0.8; stroke-linecap: round"/>
     </g>
     <g id="text_2">
      <!-- 30 -->
      <g style="fill: #262626" transform="translate(105.72771 82.180431) scale(0.09 -0.09)">
       <defs>
        <path id="ArialMT-33" d="M 269 1209 
L 831 1284 
Q 928 806 1161 595 
Q 1394 384 1728 384 
Q 2125 384 2398 659 
Q 2672 934 2672 1341 
Q 2672 1728 2419 1979 
Q 2166 2231 1775 2231 
Q 1616 2231 1378 2169 
L 1441 2663 
Q 1497 2656 1531 2656 
Q 1891 2656 2178 2843 
Q 2466 3031 2466 3422 
Q 2466 3731 2256 3934 
Q 2047 4138 1716 4138 
Q 1388 4138 1169 3931 
Q 950 3725 888 3313 
L 325 3413 
Q 428 3978 793 4289 
Q 1159 4600 1703 4600 
Q 2078 4600 2393 4439 
Q 2709 4278 2876 4000 
Q 3044 3722 3044 3409 
Q 3044 3113 2884 2869 
Q 2725 2625 2413 2481 
Q 2819 2388 3044 2092 
Q 3269 1797 3269 1353 
Q 3269 753 2831 336 
Q 2394 -81 1725 -81 
Q 1122 -81 723 278 
Q 325 638 269 1209 
z
" transform="scale(0.015625)"/>
       </defs>
       <use xlink:href="#ArialMT-33"/>
       <use xlink:href="#ArialMT-30" x="55.615234"/>
      </g>
     </g>
    </g>
    <g id="xtick_3">
     <g id="line2d_3">
      <path d="M 152.963009 68.7384 
L 152.963009 7.2 
" clip-path="url(#pc59e9d10d6)" style="fill: none; stroke: #cccccc; stroke-width: 0.8; stroke-linecap: round"/>
     </g>
     <g id="text_3">
      <!-- 40 -->
      <g style="fill: #262626" transform="translate(147.958165 82.180431) scale(0.09 -0.09)">
       <defs>
        <path id="ArialMT-34" d="M 2069 0 
L 2069 1097 
L 81 1097 
L 81 1613 
L 2172 4581 
L 2631 4581 
L 2631 1613 
L 3250 1613 
L 3250 1097 
L 2631 1097 
L 2631 0 
L 2069 0 
z
M 2069 1613 
L 2069 3678 
L 634 1613 
L 2069 1613 
z
" transform="scale(0.015625)"/>
       </defs>
       <use xlink:href="#ArialMT-34"/>
       <use xlink:href="#ArialMT-30" x="55.615234"/>
      </g>
     </g>
    </g>
    <g id="xtick_4">
     <g id="line2d_4">
      <path d="M 195.193463 68.7384 
L 195.193463 7.2 
" clip-path="url(#pc59e9d10d6)" style="fill: none; stroke: #cccccc; stroke-width: 0.8; stroke-linecap: round"/>
     </g>
     <g id="text_4">
      <!-- 50 -->
      <g style="fill: #262626" transform="translate(190.188619 82.180431) scale(0.09 -0.09)">
       <defs>
        <path id="ArialMT-35" d="M 266 1200 
L 856 1250 
Q 922 819 1161 601 
Q 1400 384 1738 384 
Q 2144 384 2425 690 
Q 2706 997 2706 1503 
Q 2706 1984 2436 2262 
Q 2166 2541 1728 2541 
Q 1456 2541 1237 2417 
Q 1019 2294 894 2097 
L 366 2166 
L 809 4519 
L 3088 4519 
L 3088 3981 
L 1259 3981 
L 1013 2750 
Q 1425 3038 1878 3038 
Q 2478 3038 2890 2622 
Q 3303 2206 3303 1553 
Q 3303 931 2941 478 
Q 2500 -78 1738 -78 
Q 1113 -78 717 272 
Q 322 622 266 1200 
z
" transform="scale(0.015625)"/>
       </defs>
       <use xlink:href="#ArialMT-35"/>
       <use xlink:href="#ArialMT-30" x="55.615234"/>
      </g>
     </g>
    </g>
    <g id="text_5">
     <!-- Stimuli Value -->
     <g style="fill: #262626" transform="translate(105.918641 94.411213) scale(0.09 -0.09)">
      <defs>
       <path id="ArialMT-53" d="M 288 1472 
L 859 1522 
Q 900 1178 1048 958 
Q 1197 738 1509 602 
Q 1822 466 2213 466 
Q 2559 466 2825 569 
Q 3091 672 3220 851 
Q 3350 1031 3350 1244 
Q 3350 1459 3225 1620 
Q 3100 1781 2813 1891 
Q 2628 1963 1997 2114 
Q 1366 2266 1113 2400 
Q 784 2572 623 2826 
Q 463 3081 463 3397 
Q 463 3744 659 4045 
Q 856 4347 1234 4503 
Q 1613 4659 2075 4659 
Q 2584 4659 2973 4495 
Q 3363 4331 3572 4012 
Q 3781 3694 3797 3291 
L 3216 3247 
Q 3169 3681 2898 3903 
Q 2628 4125 2100 4125 
Q 1550 4125 1298 3923 
Q 1047 3722 1047 3438 
Q 1047 3191 1225 3031 
Q 1400 2872 2139 2705 
Q 2878 2538 3153 2413 
Q 3553 2228 3743 1945 
Q 3934 1663 3934 1294 
Q 3934 928 3725 604 
Q 3516 281 3123 101 
Q 2731 -78 2241 -78 
Q 1619 -78 1198 103 
Q 778 284 539 648 
Q 300 1013 288 1472 
z
" transform="scale(0.015625)"/>
       <path id="ArialMT-74" d="M 1650 503 
L 1731 6 
Q 1494 -44 1306 -44 
Q 1000 -44 831 53 
Q 663 150 594 308 
Q 525 466 525 972 
L 525 2881 
L 113 2881 
L 113 3319 
L 525 3319 
L 525 4141 
L 1084 4478 
L 1084 3319 
L 1650 3319 
L 1650 2881 
L 1084 2881 
L 1084 941 
Q 1084 700 1114 631 
Q 1144 563 1211 522 
Q 1278 481 1403 481 
Q 1497 481 1650 503 
z
" transform="scale(0.015625)"/>
       <path id="ArialMT-69" d="M 425 3934 
L 425 4581 
L 988 4581 
L 988 3934 
L 425 3934 
z
M 425 0 
L 425 3319 
L 988 3319 
L 988 0 
L 425 0 
z
" transform="scale(0.015625)"/>
       <path id="ArialMT-6d" d="M 422 0 
L 422 3319 
L 925 3319 
L 925 2853 
Q 1081 3097 1340 3245 
Q 1600 3394 1931 3394 
Q 2300 3394 2536 3241 
Q 2772 3088 2869 2813 
Q 3263 3394 3894 3394 
Q 4388 3394 4653 3120 
Q 4919 2847 4919 2278 
L 4919 0 
L 4359 0 
L 4359 2091 
Q 4359 2428 4304 2576 
Q 4250 2725 4106 2815 
Q 3963 2906 3769 2906 
Q 3419 2906 3187 2673 
Q 2956 2441 2956 1928 
L 2956 0 
L 2394 0 
L 2394 2156 
Q 2394 2531 2256 2718 
Q 2119 2906 1806 2906 
Q 1569 2906 1367 2781 
Q 1166 2656 1075 2415 
Q 984 2175 984 1722 
L 984 0 
L 422 0 
z
" transform="scale(0.015625)"/>
       <path id="ArialMT-75" d="M 2597 0 
L 2597 488 
Q 2209 -75 1544 -75 
Q 1250 -75 995 37 
Q 741 150 617 320 
Q 494 491 444 738 
Q 409 903 409 1263 
L 409 3319 
L 972 3319 
L 972 1478 
Q 972 1038 1006 884 
Q 1059 663 1231 536 
Q 1403 409 1656 409 
Q 1909 409 2131 539 
Q 2353 669 2445 892 
Q 2538 1116 2538 1541 
L 2538 3319 
L 3100 3319 
L 3100 0 
L 2597 0 
z
" transform="scale(0.015625)"/>
       <path id="ArialMT-6c" d="M 409 0 
L 409 4581 
L 972 4581 
L 972 0 
L 409 0 
z
" transform="scale(0.015625)"/>
       <path id="ArialMT-20" transform="scale(0.015625)"/>
       <path id="ArialMT-56" d="M 1803 0 
L 28 4581 
L 684 4581 
L 1875 1253 
Q 2019 853 2116 503 
Q 2222 878 2363 1253 
L 3600 4581 
L 4219 4581 
L 2425 0 
L 1803 0 
z
" transform="scale(0.015625)"/>
       <path id="ArialMT-61" d="M 2588 409 
Q 2275 144 1986 34 
Q 1697 -75 1366 -75 
Q 819 -75 525 192 
Q 231 459 231 875 
Q 231 1119 342 1320 
Q 453 1522 633 1644 
Q 813 1766 1038 1828 
Q 1203 1872 1538 1913 
Q 2219 1994 2541 2106 
Q 2544 2222 2544 2253 
Q 2544 2597 2384 2738 
Q 2169 2928 1744 2928 
Q 1347 2928 1158 2789 
Q 969 2650 878 2297 
L 328 2372 
Q 403 2725 575 2942 
Q 747 3159 1072 3276 
Q 1397 3394 1825 3394 
Q 2250 3394 2515 3294 
Q 2781 3194 2906 3042 
Q 3031 2891 3081 2659 
Q 3109 2516 3109 2141 
L 3109 1391 
Q 3109 606 3145 398 
Q 3181 191 3288 0 
L 2700 0 
Q 2613 175 2588 409 
z
M 2541 1666 
Q 2234 1541 1622 1453 
Q 1275 1403 1131 1340 
Q 988 1278 909 1158 
Q 831 1038 831 891 
Q 831 666 1001 516 
Q 1172 366 1500 366 
Q 1825 366 2078 508 
Q 2331 650 2450 897 
Q 2541 1088 2541 1459 
L 2541 1666 
z
" transform="scale(0.015625)"/>
       <path id="ArialMT-65" d="M 2694 1069 
L 3275 997 
Q 3138 488 2766 206 
Q 2394 -75 1816 -75 
Q 1088 -75 661 373 
Q 234 822 234 1631 
Q 234 2469 665 2931 
Q 1097 3394 1784 3394 
Q 2450 3394 2872 2941 
Q 3294 2488 3294 1666 
Q 3294 1616 3291 1516 
L 816 1516 
Q 847 969 1125 678 
Q 1403 388 1819 388 
Q 2128 388 2347 550 
Q 2566 713 2694 1069 
z
M 847 1978 
L 2700 1978 
Q 2663 2397 2488 2606 
Q 2219 2931 1791 2931 
Q 1403 2931 1139 2672 
Q 875 2413 847 1978 
z
" transform="scale(0.015625)"/>
      </defs>
      <use xlink:href="#ArialMT-53"/>
      <use xlink:href="#ArialMT-74" x="66.699219"/>
      <use xlink:href="#ArialMT-69" x="94.482422"/>
      <use xlink:href="#ArialMT-6d" x="116.699219"/>
      <use xlink:href="#ArialMT-75" x="200"/>
      <use xlink:href="#ArialMT-6c" x="255.615234"/>
      <use xlink:href="#ArialMT-69" x="277.832031"/>
      <use xlink:href="#ArialMT-20" x="300.048828"/>
      <use xlink:href="#ArialMT-56" x="327.832031"/>
      <use xlink:href="#ArialMT-61" x="387.15625"/>
      <use xlink:href="#ArialMT-6c" x="442.771484"/>
      <use xlink:href="#ArialMT-75" x="464.988281"/>
      <use xlink:href="#ArialMT-65" x="520.603516"/>
     </g>
    </g>
   </g>
   <g id="matplotlib.axis_2">
    <g id="ytick_1">
     <g id="line2d_5">
      <path d="M 38.940781 47.194591 
L 224.754781 47.194591 
" clip-path="url(#pc59e9d10d6)" style="fill: none; stroke: #cccccc; stroke-width: 0.8; stroke-linecap: round"/>
     </g>
     <g id="text_6">
      <!-- 2.5 -->
      <g style="fill: #262626" transform="translate(19.430781 50.415606) scale(0.09 -0.09)">
       <defs>
        <path id="ArialMT-2e" d="M 581 0 
L 581 641 
L 1222 641 
L 1222 0 
L 581 0 
z
" transform="scale(0.015625)"/>
       </defs>
       <use xlink:href="#ArialMT-32"/>
       <use xlink:href="#ArialMT-2e" x="55.615234"/>
       <use xlink:href="#ArialMT-35" x="83.398438"/>
      </g>
     </g>
    </g>
    <g id="ytick_2">
     <g id="line2d_6">
      <path d="M 38.940781 23.878691 
L 224.754781 23.878691 
" clip-path="url(#pc59e9d10d6)" style="fill: none; stroke: #cccccc; stroke-width: 0.8; stroke-linecap: round"/>
     </g>
     <g id="text_7">
      <!-- 5.0 -->
      <g style="fill: #262626" transform="translate(19.430781 27.099706) scale(0.09 -0.09)">
       <use xlink:href="#ArialMT-35"/>
       <use xlink:href="#ArialMT-2e" x="55.615234"/>
       <use xlink:href="#ArialMT-30" x="83.398438"/>
      </g>
     </g>
    </g>
    <g id="text_8">
     <!-- Absolute Error -->
     <g style="fill: #262626" transform="translate(13.642031 66.729825) rotate(-90) scale(0.09 -0.09)">
      <defs>
       <path id="ArialMT-41" d="M -9 0 
L 1750 4581 
L 2403 4581 
L 4278 0 
L 3588 0 
L 3053 1388 
L 1138 1388 
L 634 0 
L -9 0 
z
M 1313 1881 
L 2866 1881 
L 2388 3150 
Q 2169 3728 2063 4100 
Q 1975 3659 1816 3225 
L 1313 1881 
z
" transform="scale(0.015625)"/>
       <path id="ArialMT-62" d="M 941 0 
L 419 0 
L 419 4581 
L 981 4581 
L 981 2947 
Q 1338 3394 1891 3394 
Q 2197 3394 2470 3270 
Q 2744 3147 2920 2923 
Q 3097 2700 3197 2384 
Q 3297 2069 3297 1709 
Q 3297 856 2875 390 
Q 2453 -75 1863 -75 
Q 1275 -75 941 416 
L 941 0 
z
M 934 1684 
Q 934 1088 1097 822 
Q 1363 388 1816 388 
Q 2184 388 2453 708 
Q 2722 1028 2722 1663 
Q 2722 2313 2464 2622 
Q 2206 2931 1841 2931 
Q 1472 2931 1203 2611 
Q 934 2291 934 1684 
z
" transform="scale(0.015625)"/>
       <path id="ArialMT-73" d="M 197 991 
L 753 1078 
Q 800 744 1014 566 
Q 1228 388 1613 388 
Q 2000 388 2187 545 
Q 2375 703 2375 916 
Q 2375 1106 2209 1216 
Q 2094 1291 1634 1406 
Q 1016 1563 777 1677 
Q 538 1791 414 1992 
Q 291 2194 291 2438 
Q 291 2659 392 2848 
Q 494 3038 669 3163 
Q 800 3259 1026 3326 
Q 1253 3394 1513 3394 
Q 1903 3394 2198 3281 
Q 2494 3169 2634 2976 
Q 2775 2784 2828 2463 
L 2278 2388 
Q 2241 2644 2061 2787 
Q 1881 2931 1553 2931 
Q 1166 2931 1000 2803 
Q 834 2675 834 2503 
Q 834 2394 903 2306 
Q 972 2216 1119 2156 
Q 1203 2125 1616 2013 
Q 2213 1853 2448 1751 
Q 2684 1650 2818 1456 
Q 2953 1263 2953 975 
Q 2953 694 2789 445 
Q 2625 197 2315 61 
Q 2006 -75 1616 -75 
Q 969 -75 630 194 
Q 291 463 197 991 
z
" transform="scale(0.015625)"/>
       <path id="ArialMT-6f" d="M 213 1659 
Q 213 2581 725 3025 
Q 1153 3394 1769 3394 
Q 2453 3394 2887 2945 
Q 3322 2497 3322 1706 
Q 3322 1066 3130 698 
Q 2938 331 2570 128 
Q 2203 -75 1769 -75 
Q 1072 -75 642 372 
Q 213 819 213 1659 
z
M 791 1659 
Q 791 1022 1069 705 
Q 1347 388 1769 388 
Q 2188 388 2466 706 
Q 2744 1025 2744 1678 
Q 2744 2294 2464 2611 
Q 2184 2928 1769 2928 
Q 1347 2928 1069 2612 
Q 791 2297 791 1659 
z
" transform="scale(0.015625)"/>
       <path id="ArialMT-45" d="M 506 0 
L 506 4581 
L 3819 4581 
L 3819 4041 
L 1113 4041 
L 1113 2638 
L 3647 2638 
L 3647 2100 
L 1113 2100 
L 1113 541 
L 3925 541 
L 3925 0 
L 506 0 
z
" transform="scale(0.015625)"/>
       <path id="ArialMT-72" d="M 416 0 
L 416 3319 
L 922 3319 
L 922 2816 
Q 1116 3169 1280 3281 
Q 1444 3394 1641 3394 
Q 1925 3394 2219 3213 
L 2025 2691 
Q 1819 2813 1613 2813 
Q 1428 2813 1281 2702 
Q 1134 2591 1072 2394 
Q 978 2094 978 1738 
L 978 0 
L 416 0 
z
" transform="scale(0.015625)"/>
      </defs>
      <use xlink:href="#ArialMT-41"/>
      <use xlink:href="#ArialMT-62" x="66.699219"/>
      <use xlink:href="#ArialMT-73" x="122.314453"/>
      <use xlink:href="#ArialMT-6f" x="172.314453"/>
      <use xlink:href="#ArialMT-6c" x="227.929688"/>
      <use xlink:href="#ArialMT-75" x="250.146484"/>
      <use xlink:href="#ArialMT-74" x="305.761719"/>
      <use xlink:href="#ArialMT-65" x="333.544922"/>
      <use xlink:href="#ArialMT-20" x="389.160156"/>
      <use xlink:href="#ArialMT-45" x="416.943359"/>
      <use xlink:href="#ArialMT-72" x="483.642578"/>
      <use xlink:href="#ArialMT-72" x="516.943359"/>
      <use xlink:href="#ArialMT-6f" x="550.244141"/>
      <use xlink:href="#ArialMT-72" x="605.859375"/>
     </g>
    </g>
   </g>
   <g id="PolyCollection_1">
    <defs>
     <path id="mf3de914de0" d="M 47.386872 -60.589468 
L 47.386872 -49.842957 
L 51.609918 -53.658287 
L 55.832963 -53.936798 
L 60.056009 -56.788269 
L 64.279054 -54.06283 
L 68.502099 -48.474486 
L 72.725145 -50.386876 
L 76.94819 -61.894452 
L 81.171236 -52.857513 
L 85.394281 -47.631782 
L 89.617327 -45.891449 
L 93.840372 -48.911735 
L 98.063418 -52.065165 
L 102.286463 -57.594404 
L 106.509509 -54.348527 
L 110.732554 -54.541644 
L 114.955599 -65.198648 
L 119.178645 -58.105186 
L 123.40169 -57.107923 
L 127.624736 -56.205372 
L 131.847781 -53.232595 
L 136.070827 -62.386465 
L 140.293872 -56.205372 
L 144.516918 -52.090801 
L 148.739963 -59.092102 
L 152.963009 -48.951536 
L 157.186054 -56.540893 
L 161.409099 -54.004077 
L 165.632145 -56.564078 
L 169.85519 -48.565694 
L 174.078236 -50.50593 
L 178.301281 -47.34533 
L 182.524327 -48.092716 
L 186.747372 -44.767805 
L 190.970418 -44.456749 
L 195.193463 -37.458762 
L 199.416509 -40.850999 
L 203.639554 -49.372981 
L 207.862599 -46.455087 
L 212.085645 -48.710976 
L 216.30869 -53.125913 
L 216.30869 -72.658479 
L 216.30869 -72.658479 
L 212.085645 -61.368178 
L 207.862599 -58.330298 
L 203.639554 -63.870474 
L 199.416509 -51.769664 
L 195.193463 -43.21732 
L 190.970418 -59.141448 
L 186.747372 -58.061062 
L 182.524327 -57.933304 
L 178.301281 -55.741968 
L 174.078236 -60.868552 
L 169.85519 -57.698582 
L 165.632145 -72.11399 
L 161.409099 -64.434513 
L 157.186054 -75.887404 
L 152.963009 -66.049863 
L 148.739963 -76.856598 
L 144.516918 -66.080341 
L 140.293872 -72.9151 
L 136.070827 -80.472941 
L 131.847781 -70.194912 
L 127.624736 -69.992165 
L 123.40169 -71.548738 
L 119.178645 -71.403884 
L 114.955599 -84.184452 
L 110.732554 -70.198864 
L 106.509509 -65.141261 
L 102.286463 -68.309797 
L 98.063418 -61.480867 
L 93.840372 -59.681561 
L 89.617327 -54.099094 
L 85.394281 -57.317873 
L 81.171236 -62.389154 
L 76.94819 -74.300842 
L 72.725145 -59.613685 
L 68.502099 -58.070644 
L 64.279054 -64.778691 
L 60.056009 -70.782667 
L 55.832963 -64.019349 
L 51.609918 -67.230966 
L 47.386872 -60.589468 
z
" style="stroke: #0acc7b; stroke-opacity: 0.2"/>
    </defs>
    <g clip-path="url(#pc59e9d10d6)">
     <use xlink:href="#mf3de914de0" x="0" y="103.399963" style="fill: #0acc7b; fill-opacity: 0.2; stroke: #0acc7b; stroke-opacity: 0.2"/>
    </g>
   </g>
   <g id="PolyCollection_2">
    <defs>
     <path id="md77214d330" d="M 47.386872 -65.359022 
L 47.386872 -53.499576 
L 51.609918 -55.640138 
L 55.832963 -55.152396 
L 60.056009 -57.802685 
L 64.279054 -52.057085 
L 68.502099 -52.999436 
L 72.725145 -51.884444 
L 76.94819 -53.255197 
L 81.171236 -48.822004 
L 85.394281 -47.212096 
L 89.617327 -45.095399 
L 93.840372 -50.953159 
L 98.063418 -53.16003 
L 102.286463 -56.445894 
L 106.509509 -53.871006 
L 110.732554 -50.639641 
L 114.955599 -56.546475 
L 119.178645 -60.864153 
L 123.40169 -65.842611 
L 127.624736 -60.864461 
L 131.847781 -67.210477 
L 136.070827 -63.533226 
L 140.293872 -64.887116 
L 144.516918 -60.868552 
L 148.739963 -66.782829 
L 152.963009 -65.806037 
L 157.186054 -67.080944 
L 161.409099 -64.184591 
L 165.632145 -59.236439 
L 169.85519 -55.894493 
L 174.078236 -54.899682 
L 178.301281 -53.718343 
L 182.524327 -55.272736 
L 186.747372 -51.259575 
L 190.970418 -50.10378 
L 195.193463 -40.445866 
L 199.416509 -50.043313 
L 203.639554 -49.210602 
L 207.862599 -57.759765 
L 212.085645 -60.868552 
L 216.30869 -57.138008 
L 216.30869 -79.526453 
L 216.30869 -79.526453 
L 212.085645 -82.630059 
L 207.862599 -75.52426 
L 203.639554 -69.806314 
L 199.416509 -67.201317 
L 195.193463 -50.044528 
L 190.970418 -68.189744 
L 186.747372 -68.357902 
L 182.524327 -72.99282 
L 178.301281 -69.884033 
L 174.078236 -68.889221 
L 169.85519 -74.132708 
L 165.632145 -81.386544 
L 161.409099 -85.951279 
L 157.186054 -87.604117 
L 152.963009 -85.569691 
L 148.739963 -93.402762 
L 144.516918 -74.971828 
L 140.293872 -80.618491 
L 136.070827 -83.074171 
L 131.847781 -87.914996 
L 127.624736 -72.976458 
L 123.40169 -84.961648 
L 119.178645 -76.881736 
L 114.955599 -74.516989 
L 110.732554 -63.124929 
L 106.509509 -64.757311 
L 102.286463 -70.489429 
L 98.063418 -62.200889 
L 93.840372 -62.635652 
L 89.617327 -52.488796 
L 85.394281 -55.624556 
L 81.171236 -56.399671 
L 76.94819 -63.725939 
L 72.725145 -59.933777 
L 68.502099 -67.429792 
L 64.279054 -63.58874 
L 60.056009 -67.967721 
L 55.832963 -66.434283 
L 51.609918 -70.481062 
L 47.386872 -65.359022 
z
" style="stroke: #5688c7; stroke-opacity: 0.2"/>
    </defs>
    <g clip-path="url(#pc59e9d10d6)">
     <use xlink:href="#md77214d330" x="0" y="103.399963" style="fill: #5688c7; fill-opacity: 0.2; stroke: #5688c7; stroke-opacity: 0.2"/>
    </g>
   </g>
   <g id="line2d_7">
    <path d="M 47.386872 48.325058 
L 51.609918 43.379261 
L 55.832963 44.547921 
L 60.056009 39.616923 
L 64.279054 44.169825 
L 68.502099 50.3922 
L 72.725145 48.609263 
L 76.94819 35.536641 
L 81.171236 45.978109 
L 85.394281 51.236013 
L 89.617327 53.606463 
L 93.840372 49.229433 
L 98.063418 46.80236 
L 102.286463 40.943945 
L 106.509509 43.767434 
L 110.732554 41.266819 
L 114.955599 29.374581 
L 119.178645 39.077203 
L 123.40169 39.673333 
L 127.624736 40.301194 
L 131.847781 42.319448 
L 136.070827 32.063047 
L 140.293872 39.228325 
L 144.516918 44.177239 
L 148.739963 35.869725 
L 152.963009 46.417394 
L 157.186054 38.436911 
L 161.409099 44.451544 
L 165.632145 39.661761 
L 169.85519 50.468738 
L 174.078236 47.712722 
L 178.301281 52.324089 
L 182.524327 50.707945 
L 186.747372 52.496562 
L 190.970418 52.030481 
L 195.193463 63.312293 
L 199.416509 57.99952 
L 203.639554 47.860759 
L 207.862599 51.221882 
L 212.085645 49.359638 
L 216.30869 40.77172 
" clip-path="url(#pc59e9d10d6)" style="fill: none; stroke: #0acc7b; stroke-linecap: round"/>
   </g>
   <g id="line2d_8">
    <path d="M 47.386872 44.373655 
L 51.609918 41.259634 
L 55.832963 43.133111 
L 60.056009 40.721818 
L 64.279054 45.76973 
L 68.502099 43.697206 
L 72.725145 47.75075 
L 76.94819 45.005751 
L 81.171236 50.886275 
L 85.394281 52.107584 
L 89.617327 54.952231 
L 93.840372 46.850988 
L 98.063418 45.95742 
L 102.286463 40.371622 
L 106.509509 44.196832 
L 110.732554 46.743315 
L 114.955599 38.731782 
L 119.178645 34.788772 
L 123.40169 28.541871 
L 127.624736 36.804698 
L 131.847781 26.490071 
L 136.070827 30.31832 
L 140.293872 31.193483 
L 144.516918 35.707245 
L 148.739963 24.561107 
L 152.963009 27.993261 
L 157.186054 26.36572 
L 161.409099 29.474507 
L 165.632145 33.904528 
L 169.85519 38.593614 
L 174.078236 41.598775 
L 178.301281 42.220532 
L 182.524327 39.99997 
L 186.747372 43.944495 
L 190.970418 45.257577 
L 195.193463 58.529181 
L 199.416509 45.362627 
L 203.639554 44.863001 
L 207.862599 37.202062 
L 212.085645 31.477947 
L 216.30869 35.69208 
" clip-path="url(#pc59e9d10d6)" style="fill: none; stroke: #5688c7; stroke-linecap: round"/>
   </g>
   <g id="patch_3">
    <path d="M 38.940781 68.7384 
L 38.940781 7.2 
" style="fill: none; stroke: #cccccc; stroke-width: 0.8; stroke-linejoin: miter; stroke-linecap: square"/>
   </g>
   <g id="patch_4">
    <path d="M 224.754781 68.7384 
L 224.754781 7.2 
" style="fill: none; stroke: #cccccc; stroke-width: 0.8; stroke-linejoin: miter; stroke-linecap: square"/>
   </g>
   <g id="patch_5">
    <path d="M 38.940781 68.7384 
L 224.754781 68.7384 
" style="fill: none; stroke: #cccccc; stroke-width: 0.8; stroke-linejoin: miter; stroke-linecap: square"/>
   </g>
   <g id="patch_6">
    <path d="M 38.940781 7.2 
L 224.754781 7.2 
" style="fill: none; stroke: #cccccc; stroke-width: 0.8; stroke-linejoin: miter; stroke-linecap: square"/>
   </g>
   <g id="legend_1">
    <g id="patch_7">
     <path d="M 45.240781 39.861563 
L 115.561719 39.861563 
Q 117.361719 39.861563 117.361719 38.061563 
L 117.361719 13.5 
Q 117.361719 11.7 115.561719 11.7 
L 45.240781 11.7 
Q 43.440781 11.7 43.440781 13.5 
L 43.440781 38.061563 
Q 43.440781 39.861563 45.240781 39.861563 
z
" style="fill: #ffffff; opacity: 0.8; stroke: #cccccc; stroke-linejoin: miter"/>
    </g>
    <g id="line2d_9">
     <path d="M 47.040781 18.592031 
L 56.040781 18.592031 
L 65.040781 18.592031 
" style="fill: none; stroke: #0acc7b; stroke-linecap: round"/>
    </g>
    <g id="text_9">
     <!-- Pie Chart -->
     <g style="fill: #262626" transform="translate(72.240781 21.742031) scale(0.09 -0.09)">
      <defs>
       <path id="ArialMT-50" d="M 494 0 
L 494 4581 
L 2222 4581 
Q 2678 4581 2919 4538 
Q 3256 4481 3484 4323 
Q 3713 4166 3852 3881 
Q 3991 3597 3991 3256 
Q 3991 2672 3619 2267 
Q 3247 1863 2275 1863 
L 1100 1863 
L 1100 0 
L 494 0 
z
M 1100 2403 
L 2284 2403 
Q 2872 2403 3119 2622 
Q 3366 2841 3366 3238 
Q 3366 3525 3220 3729 
Q 3075 3934 2838 4000 
Q 2684 4041 2272 4041 
L 1100 4041 
L 1100 2403 
z
" transform="scale(0.015625)"/>
       <path id="ArialMT-43" d="M 3763 1606 
L 4369 1453 
Q 4178 706 3683 314 
Q 3188 -78 2472 -78 
Q 1731 -78 1267 223 
Q 803 525 561 1097 
Q 319 1669 319 2325 
Q 319 3041 592 3573 
Q 866 4106 1370 4382 
Q 1875 4659 2481 4659 
Q 3169 4659 3637 4309 
Q 4106 3959 4291 3325 
L 3694 3184 
Q 3534 3684 3231 3912 
Q 2928 4141 2469 4141 
Q 1941 4141 1586 3887 
Q 1231 3634 1087 3207 
Q 944 2781 944 2328 
Q 944 1744 1114 1308 
Q 1284 872 1643 656 
Q 2003 441 2422 441 
Q 2931 441 3284 734 
Q 3638 1028 3763 1606 
z
" transform="scale(0.015625)"/>
       <path id="ArialMT-68" d="M 422 0 
L 422 4581 
L 984 4581 
L 984 2938 
Q 1378 3394 1978 3394 
Q 2347 3394 2619 3248 
Q 2891 3103 3008 2847 
Q 3125 2591 3125 2103 
L 3125 0 
L 2563 0 
L 2563 2103 
Q 2563 2525 2380 2717 
Q 2197 2909 1863 2909 
Q 1613 2909 1392 2779 
Q 1172 2650 1078 2428 
Q 984 2206 984 1816 
L 984 0 
L 422 0 
z
" transform="scale(0.015625)"/>
      </defs>
      <use xlink:href="#ArialMT-50"/>
      <use xlink:href="#ArialMT-69" x="66.699219"/>
      <use xlink:href="#ArialMT-65" x="88.916016"/>
      <use xlink:href="#ArialMT-20" x="144.53125"/>
      <use xlink:href="#ArialMT-43" x="172.314453"/>
      <use xlink:href="#ArialMT-68" x="244.53125"/>
      <use xlink:href="#ArialMT-61" x="300.146484"/>
      <use xlink:href="#ArialMT-72" x="355.761719"/>
      <use xlink:href="#ArialMT-74" x="389.0625"/>
     </g>
    </g>
    <g id="line2d_10">
     <path d="M 47.040781 31.322813 
L 56.040781 31.322813 
L 65.040781 31.322813 
" style="fill: none; stroke: #5688c7; stroke-linecap: round"/>
    </g>
    <g id="text_10">
     <!-- Line Chart -->
     <g style="fill: #262626" transform="translate(72.240781 34.472813) scale(0.09 -0.09)">
      <defs>
       <path id="ArialMT-4c" d="M 469 0 
L 469 4581 
L 1075 4581 
L 1075 541 
L 3331 541 
L 3331 0 
L 469 0 
z
" transform="scale(0.015625)"/>
       <path id="ArialMT-6e" d="M 422 0 
L 422 3319 
L 928 3319 
L 928 2847 
Q 1294 3394 1984 3394 
Q 2284 3394 2536 3286 
Q 2788 3178 2913 3003 
Q 3038 2828 3088 2588 
Q 3119 2431 3119 2041 
L 3119 0 
L 2556 0 
L 2556 2019 
Q 2556 2363 2490 2533 
Q 2425 2703 2258 2804 
Q 2091 2906 1866 2906 
Q 1506 2906 1245 2678 
Q 984 2450 984 1813 
L 984 0 
L 422 0 
z
" transform="scale(0.015625)"/>
      </defs>
      <use xlink:href="#ArialMT-4c"/>
      <use xlink:href="#ArialMT-69" x="55.615234"/>
      <use xlink:href="#ArialMT-6e" x="77.832031"/>
      <use xlink:href="#ArialMT-65" x="133.447266"/>
      <use xlink:href="#ArialMT-20" x="189.0625"/>
      <use xlink:href="#ArialMT-43" x="216.845703"/>
      <use xlink:href="#ArialMT-68" x="289.0625"/>
      <use xlink:href="#ArialMT-61" x="344.677734"/>
      <use xlink:href="#ArialMT-72" x="400.292969"/>
      <use xlink:href="#ArialMT-74" x="433.59375"/>
     </g>
    </g>
   </g>
  </g>
 </g>
 <defs>
  <clipPath id="pc59e9d10d6">
   <rect x="38.940781" y="7.2" width="185.814" height="61.5384"/>
  </clipPath>
 </defs>
</svg>
