<svg width="597.2997712500002" height="432.88446875000005"><g transform="translate(298.6498856250001, 191.44223437500003)"><path d="M1.1110132577874382e-14,-181.44223437500003A181.44223437500003,181.44223437500003,0,0,1,87.41046304738082,-158.99904202489685L0,0Z" fill="#fff" stroke="#404040" style="stroke-width: 2px;"></path><path d="M87.41046304738082,-158.99904202489685A181.44223437500003,181.44223437500003,0,0,1,106.64906950861943,-146.7898511067373L0,0Z" fill="#fff" stroke="#404040" style="stroke-width: 2px;"></path><path d="M106.64906950861943,-146.7898511067373A181.44223437500003,181.44223437500003,0,0,1,164.17384212237997,-77.25434601217138L0,0Z" fill="#fff" stroke="#404040" style="stroke-width: 2px;"></path><path d="M164.17384212237997,-77.25434601217138A181.44223437500003,181.44223437500003,0,0,1,180.01150816278465,-22.740741939351103L0,0Z" fill="#fff" stroke="#404040" style="stroke-width: 2px;"></path><path d="M180.01150816278465,-22.740741939351103A181.44223437500003,181.44223437500003,0,0,1,153.19674534829414,97.22161091898424L0,0Z" fill="#fff" stroke="#404040" style="stroke-width: 2px;"></path><path d="M153.19674534829414,97.22161091898424A181.44223437500003,181.44223437500003,0,0,1,-6.946640591914925e-14,181.44223437500003L0,0Z" fill="#fff" stroke="#404040" style="stroke-width: 2px;"></path><path d="M-6.946640591914925e-14,181.44223437500003A181.44223437500003,181.44223437500003,0,1,1,1.2782267926042412e-13,-181.44223437500003L0,0Z" fill="#0ACC7B" stroke="#404040" style="stroke-width: 2px;"></path><text transform="translate(38.3544214746092,-149.38060899320257)" dy="0.3em" style="text-anchor: middle; font-size: 12pt;">G</text><text transform="translate(82.63836928113655,-130.21723354605004)" dy="0.3em" style="text-anchor: middle; font-size: 12pt;">A</text><text transform="translate(118.83309772705114,-98.30728800259494)" dy="0.3em" style="text-anchor: middle; font-size: 12pt;">E</text><text transform="translate(148.10215718761424,-43.02765420293377)" dy="0.3em" style="text-anchor: middle; font-size: 12pt;">F</text><text transform="translate(150.51164017265413,33.64333756287464)" dy="0.3em" style="text-anchor: middle; font-size: 12pt;">D</text><text transform="translate(74.29889359027366,135.14918572116233)" dy="0.3em" style="text-anchor: middle; font-size: 12pt;">C</text><text transform="translate(-154.22589921875002,-1.1809289006255372e-13)" dy="0.3em" style="text-anchor: middle; font-size: 12pt;">B</text><line x1="1.0497809178300706e-14" y1="-171.44223437500003" x2="1.141629427766122e-14" y2="-186.44223437500003" stroke="#404040" stroke-width="2px"></line><text x="1.2640941076808573e-14" y="-206.44223437500003" text-anchor="middle" dominant-baseline="middle" style="font-size: 10pt;">0%</text><line x1="171.44223437500003" y1="0" x2="186.44223437500003" y2="0" stroke="#404040" stroke-width="2px"></line><text x="206.44223437500003" y="0" text-anchor="middle" dominant-baseline="middle" style="font-size: 10pt;">25%</text><line x1="1.0497809178300706e-14" y1="171.44223437500003" x2="1.141629427766122e-14" y2="186.44223437500003" stroke="#404040" stroke-width="2px"></line><text x="1.2640941076808573e-14" y="206.44223437500003" text-anchor="middle" dominant-baseline="middle" style="font-size: 10pt;">50%</text><line x1="-171.44223437500003" y1="2.0995618356601413e-14" x2="-186.44223437500003" y2="2.283258855532244e-14" stroke="#404040" stroke-width="2px"></line><text x="-206.44223437500003" y="2.5281882153617146e-14" text-anchor="middle" dominant-baseline="middle" style="font-size: 10pt;">75%</text><line x1="-3.1493427534902114e-14" y1="-171.44223437500003" x2="-3.424888283298366e-14" y2="-186.44223437500003" stroke="#404040" stroke-width="2px"></line><text x="-3.7922823230425716e-14" y="-206.44223437500003" text-anchor="middle" dominant-baseline="middle" style="font-size: 10pt;">100%</text></g></svg>