<svg width="597.2997712500002" height="432.88446875000005"><g transform="translate(298.6498856250001, 191.44223437500003)"><path d="M1.1110132577874382e-14,-181.44223437500003A181.44223437500003,181.44223437500003,0,0,1,181.08419957199695,-11.392852160965669L0,0Z" fill="#fff" stroke="#404040" style="stroke-width: 2px;"></path><path d="M181.08419957199695,-11.392852160965669A181.44223437500003,181.44223437500003,0,0,1,164.17384212237994,77.25434601217141L0,0Z" fill="#fff" stroke="#404040" style="stroke-width: 2px;"></path><path d="M164.17384212237994,77.25434601217141A181.44223437500003,181.44223437500003,0,0,1,66.79334136740533,168.70072306890003L0,0Z" fill="#fff" stroke="#404040" style="stroke-width: 2px;"></path><path d="M66.79334136740533,168.70072306890003A181.44223437500003,181.44223437500003,0,0,1,-87.4104630473809,158.9990420248968L0,0Z" fill="#fff" stroke="#404040" style="stroke-width: 2px;"></path><path d="M-87.4104630473809,158.9990420248968A181.44223437500003,181.44223437500003,0,0,1,-168.70072306890003,66.79334136740535L0,0Z" fill="#fff" stroke="#404040" style="stroke-width: 2px;"></path><path d="M-168.70072306890003,66.79334136740535A181.44223437500003,181.44223437500003,0,0,1,-66.79334136740536,-168.70072306890003L0,0Z" fill="#0ACC7B" stroke="#404040" style="stroke-width: 2px;"></path><path d="M-66.79334136740536,-168.70072306890003A181.44223437500003,181.44223437500003,0,0,1,-3.333039773362314e-14,-181.44223437500003L0,0Z" fill="#fff" stroke="#404040" style="stroke-width: 2px;"></path><text transform="translate(105.57489296944493,-112.42584206632513)" dy="0.3em" style="text-anchor: middle; font-size: 12pt;">E</text><text transform="translate(151.49413453474577,28.899051738774897)" dy="0.3em" style="text-anchor: middle; font-size: 12pt;">F</text><text transform="translate(105.5748929694449,112.42584206632516)" dy="0.3em" style="text-anchor: middle; font-size: 12pt;">B</text><text transform="translate(-9.683924336820912,153.9215696361974)" dy="0.3em" style="text-anchor: middle; font-size: 12pt;">D</text><text transform="translate(-115.68655422769606,101.99141709356907)" dy="0.3em" style="text-anchor: middle; font-size: 12pt;">A</text><text transform="translate(-141.5415324082793,-61.25049055597886)" dy="0.3em" style="text-anchor: middle; font-size: 12pt;">C</text><text transform="translate(-28.899051738774858,-151.49413453474577)" dy="0.3em" style="text-anchor: middle; font-size: 12pt;">G</text><line x1="1.0497809178300706e-14" y1="-171.44223437500003" x2="1.141629427766122e-14" y2="-186.44223437500003" stroke="#404040" stroke-width="2px"></line><text x="1.2640941076808573e-14" y="-206.44223437500003" text-anchor="middle" dominant-baseline="middle" style="font-size: 10pt;">0%</text><line x1="171.44223437500003" y1="0" x2="186.44223437500003" y2="0" stroke="#404040" stroke-width="2px"></line><text x="206.44223437500003" y="0" text-anchor="middle" dominant-baseline="middle" style="font-size: 10pt;">25%</text><line x1="1.0497809178300706e-14" y1="171.44223437500003" x2="1.141629427766122e-14" y2="186.44223437500003" stroke="#404040" stroke-width="2px"></line><text x="1.2640941076808573e-14" y="206.44223437500003" text-anchor="middle" dominant-baseline="middle" style="font-size: 10pt;">50%</text><line x1="-171.44223437500003" y1="2.0995618356601413e-14" x2="-186.44223437500003" y2="2.283258855532244e-14" stroke="#404040" stroke-width="2px"></line><text x="-206.44223437500003" y="2.5281882153617146e-14" text-anchor="middle" dominant-baseline="middle" style="font-size: 10pt;">75%</text><line x1="-3.1493427534902114e-14" y1="-171.44223437500003" x2="-3.424888283298366e-14" y2="-186.44223437500003" stroke="#404040" stroke-width="2px"></line><text x="-3.7922823230425716e-14" y="-206.44223437500003" text-anchor="middle" dominant-baseline="middle" style="font-size: 10pt;">100%</text></g></svg>