<svg width="597.2997712500002" height="432.88446875000005"><g transform="translate(298.6498856250001, 191.44223437500003)"><path d="M1.1110132577874382e-14,-181.44223437500003A181.44223437500003,181.44223437500003,0,0,1,106.64906950861943,-146.7898511067373L0,0Z" fill="#fff" stroke="#404040" style="stroke-width: 2px;"></path><path d="M106.64906950861943,-146.7898511067373A181.44223437500003,181.44223437500003,0,0,1,146.7898511067373,-106.64906950861943L0,0Z" fill="#fff" stroke="#404040" style="stroke-width: 2px;"></path><path d="M146.7898511067373,-106.64906950861943A181.44223437500003,181.44223437500003,0,0,1,172.5618193334963,56.06873391923727L0,0Z" fill="#0ACC7B" stroke="#404040" style="stroke-width: 2px;"></path><path d="M172.5618193334963,56.06873391923727A181.44223437500003,181.44223437500003,0,0,1,158.99904202489688,87.41046304738077L0,0Z" fill="#fff" stroke="#404040" style="stroke-width: 2px;"></path><path d="M158.99904202489688,87.41046304738077A181.44223437500003,181.44223437500003,0,0,1,106.64906950861943,146.7898511067373L0,0Z" fill="#fff" stroke="#404040" style="stroke-width: 2px;"></path><path d="M106.64906950861943,146.7898511067373A181.44223437500003,181.44223437500003,0,1,1,-97.22161091898428,-153.19674534829412L0,0Z" fill="#fff" stroke="#404040" style="stroke-width: 2px;"></path><path d="M-97.22161091898428,-153.19674534829412A181.44223437500003,181.44223437500003,0,0,1,-3.333039773362314e-14,-181.44223437500003L0,0Z" fill="#fff" stroke="#404040" style="stroke-width: 2px;"></path><text transform="translate(47.65842383135168,-146.67754643347183)" dy="0.3em" style="text-anchor: middle; font-size: 12pt;">C</text><text transform="translate(109.0541791721712,-109.05417917217119)" dy="0.3em" style="text-anchor: middle; font-size: 12pt;">G</text><text transform="translate(152.32712247616016,-24.126246039633717)" dy="0.3em" style="text-anchor: middle; font-size: 12pt;">A</text><text transform="translate(141.54153240827932,61.250490555978814)" dy="0.3em" style="text-anchor: middle; font-size: 12pt;">F</text><text transform="translate(115.68655422769604,101.99141709356911)" dy="0.3em" style="text-anchor: middle; font-size: 12pt;">B</text><text transform="translate(-127.55724529385444,86.68781438515731)" dy="0.3em" style="text-anchor: middle; font-size: 12pt;">D</text><text transform="translate(-43.027654202933824,-148.1021571876142)" dy="0.3em" style="text-anchor: middle; font-size: 12pt;">E</text><line x1="1.0497809178300706e-14" y1="-171.44223437500003" x2="1.141629427766122e-14" y2="-186.44223437500003" stroke="#404040" stroke-width="2px"></line><text x="1.2640941076808573e-14" y="-206.44223437500003" text-anchor="middle" dominant-baseline="middle" style="font-size: 10pt;">0%</text><line x1="171.44223437500003" y1="0" x2="186.44223437500003" y2="0" stroke="#404040" stroke-width="2px"></line><text x="206.44223437500003" y="0" text-anchor="middle" dominant-baseline="middle" style="font-size: 10pt;">25%</text><line x1="1.0497809178300706e-14" y1="171.44223437500003" x2="1.141629427766122e-14" y2="186.44223437500003" stroke="#404040" stroke-width="2px"></line><text x="1.2640941076808573e-14" y="206.44223437500003" text-anchor="middle" dominant-baseline="middle" style="font-size: 10pt;">50%</text><line x1="-171.44223437500003" y1="2.0995618356601413e-14" x2="-186.44223437500003" y2="2.283258855532244e-14" stroke="#404040" stroke-width="2px"></line><text x="-206.44223437500003" y="2.5281882153617146e-14" text-anchor="middle" dominant-baseline="middle" style="font-size: 10pt;">75%</text><line x1="-3.1493427534902114e-14" y1="-171.44223437500003" x2="-3.424888283298366e-14" y2="-186.44223437500003" stroke="#404040" stroke-width="2px"></line><text x="-3.7922823230425716e-14" y="-206.44223437500003" text-anchor="middle" dominant-baseline="middle" style="font-size: 10pt;">100%</text></g></svg>