<svg width="597.2997712500002" height="432.88446875000005"><g transform="translate(298.6498856250001, 191.44223437500003)"><path d="M1.1110132577874382e-14,-181.44223437500003A181.44223437500003,181.44223437500003,0,0,1,45.12284879365789,-175.74189293317949L0,0Z" fill="#fff" stroke="#404040" style="stroke-width: 2px;"></path><path d="M45.12284879365789,-175.74189293317949A181.44223437500003,181.44223437500003,0,0,1,97.22161091898418,-153.19674534829417L0,0Z" fill="#fff" stroke="#404040" style="stroke-width: 2px;"></path><path d="M97.22161091898418,-153.19674534829417A181.44223437500003,181.44223437500003,0,0,1,158.99904202489688,-87.41046304738077L0,0Z" fill="#fff" stroke="#404040" style="stroke-width: 2px;"></path><path d="M158.99904202489688,-87.41046304738077A181.44223437500003,181.44223437500003,0,0,1,172.5618193334963,-56.06873391923723L0,0Z" fill="#fff" stroke="#404040" style="stroke-width: 2px;"></path><path d="M172.5618193334963,-56.06873391923723A181.44223437500003,181.44223437500003,0,0,1,181.44223437500003,4.0288269248511816e-14L0,0Z" fill="#fff" stroke="#404040" style="stroke-width: 2px;"></path><path d="M181.44223437500003,4.0288269248511816e-14A181.44223437500003,181.44223437500003,0,1,1,-181.44223437500003,-1.389328118382985e-13L0,0Z" fill="#0ACC7B" stroke="#404040" style="stroke-width: 2px;"></path><path d="M-181.44223437500003,-1.389328118382985e-13A181.44223437500003,181.44223437500003,0,0,1,1.2782267926042412e-13,-181.44223437500003L0,0Z" fill="#fff" stroke="#404040" style="stroke-width: 2px;"></path><text transform="translate(19.329630648448447,-153.00978193836693)" dy="0.3em" style="text-anchor: middle; font-size: 12pt;">C</text><text transform="translate(61.25049055597882,-141.54153240827932)" dy="0.3em" style="text-anchor: middle; font-size: 12pt;">G</text><text transform="translate(112.42584206632515,-105.57489296944492)" dy="0.3em" style="text-anchor: middle; font-size: 12pt;">A</text><text transform="translate(141.54153240827932,-61.250490555978814)" dy="0.3em" style="text-anchor: middle; font-size: 12pt;">F</text><text transform="translate(152.32712247616016,-24.126246039633685)" dy="0.3em" style="text-anchor: middle; font-size: 12pt;">B</text><text transform="translate(-5.904644503127686e-14,154.22589921875002)" dy="0.3em" style="text-anchor: middle; font-size: 12pt;">D</text><text transform="translate(-109.05417917217112,-109.05417917217127)" dy="0.3em" style="text-anchor: middle; font-size: 12pt;">E</text><line x1="1.0497809178300706e-14" y1="-171.44223437500003" x2="1.141629427766122e-14" y2="-186.44223437500003" stroke="#404040" stroke-width="2px"></line><text x="1.2640941076808573e-14" y="-206.44223437500003" text-anchor="middle" dominant-baseline="middle" style="font-size: 10pt;">0%</text><line x1="171.44223437500003" y1="0" x2="186.44223437500003" y2="0" stroke="#404040" stroke-width="2px"></line><text x="206.44223437500003" y="0" text-anchor="middle" dominant-baseline="middle" style="font-size: 10pt;">25%</text><line x1="1.0497809178300706e-14" y1="171.44223437500003" x2="1.141629427766122e-14" y2="186.44223437500003" stroke="#404040" stroke-width="2px"></line><text x="1.2640941076808573e-14" y="206.44223437500003" text-anchor="middle" dominant-baseline="middle" style="font-size: 10pt;">50%</text><line x1="-171.44223437500003" y1="2.0995618356601413e-14" x2="-186.44223437500003" y2="2.283258855532244e-14" stroke="#404040" stroke-width="2px"></line><text x="-206.44223437500003" y="2.5281882153617146e-14" text-anchor="middle" dominant-baseline="middle" style="font-size: 10pt;">75%</text><line x1="-3.1493427534902114e-14" y1="-171.44223437500003" x2="-3.424888283298366e-14" y2="-186.44223437500003" stroke="#404040" stroke-width="2px"></line><text x="-3.7922823230425716e-14" y="-206.44223437500003" text-anchor="middle" dominant-baseline="middle" style="font-size: 10pt;">100%</text></g></svg>