<svg width="597.2997712500002" height="432.88446875000005"><g transform="translate(298.6498856250001, 191.44223437500003)"><path d="M1.1110132577874382e-14,-181.44223437500003A181.44223437500003,181.44223437500003,0,0,1,77.25434601217141,-164.17384212237994L0,0Z" fill="#fff" stroke="#404040" style="stroke-width: 2px;"></path><path d="M77.25434601217141,-164.17384212237994A181.44223437500003,181.44223437500003,0,0,1,124.20575643464112,-132.2656965486178L0,0Z" fill="#fff" stroke="#404040" style="stroke-width: 2px;"></path><path d="M124.20575643464112,-132.2656965486178A181.44223437500003,181.44223437500003,0,0,1,139.80364438476607,-115.65563294422935L0,0Z" fill="#fff" stroke="#404040" style="stroke-width: 2px;"></path><path d="M139.80364438476607,-115.65563294422935A181.44223437500003,181.44223437500003,0,0,1,153.19674534829414,97.22161091898424L0,0Z" fill="#fff" stroke="#404040" style="stroke-width: 2px;"></path><path d="M153.19674534829414,97.22161091898424A181.44223437500003,181.44223437500003,0,0,1,56.06873391923721,172.5618193334963L0,0Z" fill="#fff" stroke="#404040" style="stroke-width: 2px;"></path><path d="M56.06873391923721,172.5618193334963A181.44223437500003,181.44223437500003,0,1,1,-56.06873391923715,-172.56181933349632L0,0Z" fill="#0ACC7B" stroke="#404040" style="stroke-width: 2px;"></path><path d="M-56.06873391923715,-172.56181933349632A181.44223437500003,181.44223437500003,0,0,1,1.2782267926042412e-13,-181.44223437500003L0,0Z" fill="#fff" stroke="#404040" style="stroke-width: 2px;"></path><text transform="translate(33.64333756287465,-150.5116401726541)" dy="0.3em" style="text-anchor: middle; font-size: 12pt;">D</text><text transform="translate(86.6878143851573,-127.55724529385446)" dy="0.3em" style="text-anchor: middle; font-size: 12pt;">A</text><text transform="translate(112.42584206632515,-105.57489296944492)" dy="0.3em" style="text-anchor: middle; font-size: 12pt;">G</text><text transform="translate(153.9215696361974,-9.683924336820784)" dy="0.3em" style="text-anchor: middle; font-size: 12pt;">C</text><text transform="translate(94.52614148714494,121.8623673058434)" dy="0.3em" style="text-anchor: middle; font-size: 12pt;">F</text><text transform="translate(-146.6775464334719,47.65842383135156)" dy="0.3em" style="text-anchor: middle; font-size: 12pt;">B</text><text transform="translate(-24.12624603963361,-152.32712247616018)" dy="0.3em" style="text-anchor: middle; font-size: 12pt;">E</text><line x1="1.0497809178300706e-14" y1="-171.44223437500003" x2="1.141629427766122e-14" y2="-186.44223437500003" stroke="#404040" stroke-width="2px"></line><text x="1.2640941076808573e-14" y="-206.44223437500003" text-anchor="middle" dominant-baseline="middle" style="font-size: 10pt;">0%</text><line x1="171.44223437500003" y1="0" x2="186.44223437500003" y2="0" stroke="#404040" stroke-width="2px"></line><text x="206.44223437500003" y="0" text-anchor="middle" dominant-baseline="middle" style="font-size: 10pt;">25%</text><line x1="1.0497809178300706e-14" y1="171.44223437500003" x2="1.141629427766122e-14" y2="186.44223437500003" stroke="#404040" stroke-width="2px"></line><text x="1.2640941076808573e-14" y="206.44223437500003" text-anchor="middle" dominant-baseline="middle" style="font-size: 10pt;">50%</text><line x1="-171.44223437500003" y1="2.0995618356601413e-14" x2="-186.44223437500003" y2="2.283258855532244e-14" stroke="#404040" stroke-width="2px"></line><text x="-206.44223437500003" y="2.5281882153617146e-14" text-anchor="middle" dominant-baseline="middle" style="font-size: 10pt;">75%</text><line x1="-3.1493427534902114e-14" y1="-171.44223437500003" x2="-3.424888283298366e-14" y2="-186.44223437500003" stroke="#404040" stroke-width="2px"></line><text x="-3.7922823230425716e-14" y="-206.44223437500003" text-anchor="middle" dominant-baseline="middle" style="font-size: 10pt;">100%</text></g></svg>