<svg width="597.2997712500002" height="432.88446875000005"><g transform="translate(298.6498856250001, 191.44223437500003)"><path d="M1.1110132577874382e-14,-181.44223437500003A181.44223437500003,181.44223437500003,0,0,1,97.22161091898418,-153.19674534829417L0,0Z" fill="#fff" stroke="#404040" style="stroke-width: 2px;"></path><path d="M97.22161091898418,-153.19674534829417A181.44223437500003,181.44223437500003,0,0,1,132.26569654861783,-124.20575643464109L0,0Z" fill="#fff" stroke="#404040" style="stroke-width: 2px;"></path><path d="M132.26569654861783,-124.20575643464109A181.44223437500003,181.44223437500003,0,0,1,153.1967453482942,-97.22161091898418L0,0Z" fill="#fff" stroke="#404040" style="stroke-width: 2px;"></path><path d="M153.1967453482942,-97.22161091898418A181.44223437500003,181.44223437500003,0,0,1,178.22839357028914,-33.99888439855863L0,0Z" fill="#fff" stroke="#404040" style="stroke-width: 2px;"></path><path d="M178.22839357028914,-33.99888439855863A181.44223437500003,181.44223437500003,0,0,1,-97.22161091898424,153.19674534829417L0,0Z" fill="#0ACC7B" stroke="#404040" style="stroke-width: 2px;"></path><path d="M-97.22161091898424,153.19674534829417A181.44223437500003,181.44223437500003,0,0,1,-77.2543460121713,-164.17384212238002L0,0Z" fill="#fff" stroke="#404040" style="stroke-width: 2px;"></path><path d="M-77.2543460121713,-164.17384212238002A181.44223437500003,181.44223437500003,0,0,1,1.2782267926042412e-13,-181.44223437500003L0,0Z" fill="#fff" stroke="#404040" style="stroke-width: 2px;"></path><text transform="translate(43.027654202933775,-148.10215718761424)" dy="0.3em" style="text-anchor: middle; font-size: 12pt;">C</text><text transform="translate(98.30728800259499,-118.83309772705113)" dy="0.3em" style="text-anchor: middle; font-size: 12pt;">G</text><text transform="translate(121.8623673058434,-94.52614148714494)" dy="0.3em" style="text-anchor: middle; font-size: 12pt;">F</text><text transform="translate(143.395614608565,-56.77434016229455)" dy="0.3em" style="text-anchor: middle; font-size: 12pt;">B</text><text transform="translate(86.68781438515724,127.55724529385448)" dy="0.3em" style="text-anchor: middle; font-size: 12pt;">A</text><text transform="translate(-153.9215696361974,-9.683924336820903)" dy="0.3em" style="text-anchor: middle; font-size: 12pt;">D</text><text transform="translate(-33.643337562874464,-150.51164017265415)" dy="0.3em" style="text-anchor: middle; font-size: 12pt;">E</text><line x1="1.0497809178300706e-14" y1="-171.44223437500003" x2="1.141629427766122e-14" y2="-186.44223437500003" stroke="#404040" stroke-width="2px"></line><text x="1.2640941076808573e-14" y="-206.44223437500003" text-anchor="middle" dominant-baseline="middle" style="font-size: 10pt;">0%</text><line x1="171.44223437500003" y1="0" x2="186.44223437500003" y2="0" stroke="#404040" stroke-width="2px"></line><text x="206.44223437500003" y="0" text-anchor="middle" dominant-baseline="middle" style="font-size: 10pt;">25%</text><line x1="1.0497809178300706e-14" y1="171.44223437500003" x2="1.141629427766122e-14" y2="186.44223437500003" stroke="#404040" stroke-width="2px"></line><text x="1.2640941076808573e-14" y="206.44223437500003" text-anchor="middle" dominant-baseline="middle" style="font-size: 10pt;">50%</text><line x1="-171.44223437500003" y1="2.0995618356601413e-14" x2="-186.44223437500003" y2="2.283258855532244e-14" stroke="#404040" stroke-width="2px"></line><text x="-206.44223437500003" y="2.5281882153617146e-14" text-anchor="middle" dominant-baseline="middle" style="font-size: 10pt;">75%</text><line x1="-3.1493427534902114e-14" y1="-171.44223437500003" x2="-3.424888283298366e-14" y2="-186.44223437500003" stroke="#404040" stroke-width="2px"></line><text x="-3.7922823230425716e-14" y="-206.44223437500003" text-anchor="middle" dominant-baseline="middle" style="font-size: 10pt;">100%</text></g></svg>