<svg width="597.2997712500002" height="432.88446875000005"><g transform="translate(298.6498856250001, 191.44223437500003)"><path d="M1.1110132577874382e-14,-181.44223437500003A181.44223437500003,181.44223437500003,0,0,1,132.2656965486178,124.20575643464112L0,0Z" fill="#0ACC7B" stroke="#404040" style="stroke-width: 2px;"></path><path d="M132.2656965486178,124.20575643464112A181.44223437500003,181.44223437500003,0,0,1,77.25434601217134,164.17384212237997L0,0Z" fill="#fff" stroke="#404040" style="stroke-width: 2px;"></path><path d="M77.25434601217134,164.17384212237997A181.44223437500003,181.44223437500003,0,0,1,-139.80364438476607,115.65563294422934L0,0Z" fill="#fff" stroke="#404040" style="stroke-width: 2px;"></path><path d="M-139.80364438476607,115.65563294422934A181.44223437500003,181.44223437500003,0,0,1,-180.01150816278465,22.740741939351004L0,0Z" fill="#fff" stroke="#404040" style="stroke-width: 2px;"></path><path d="M-180.01150816278465,22.740741939351004A181.44223437500003,181.44223437500003,0,0,1,-158.99904202489682,-87.41046304738089L0,0Z" fill="#fff" stroke="#404040" style="stroke-width: 2px;"></path><path d="M-158.99904202489682,-87.41046304738089A181.44223437500003,181.44223437500003,0,0,1,-106.64906950861933,-146.7898511067374L0,0Z" fill="#fff" stroke="#404040" style="stroke-width: 2px;"></path><path d="M-106.64906950861933,-146.7898511067374A181.44223437500003,181.44223437500003,0,0,1,1.2782267926042412e-13,-181.44223437500003L0,0Z" fill="#fff" stroke="#404040" style="stroke-width: 2px;"></path><text transform="translate(141.54153240827932,-61.250490555978814)" dy="0.3em" style="text-anchor: middle; font-size: 12pt;">D</text><text transform="translate(90.65170908232652,124.77137344072669)" dy="0.3em" style="text-anchor: middle; font-size: 12pt;">A</text><text transform="translate(-33.6433375628747,150.5116401726541)" dy="0.3em" style="text-anchor: middle; font-size: 12pt;">G</text><text transform="translate(-141.54153240827935,61.25049055597877)" dy="0.3em" style="text-anchor: middle; font-size: 12pt;">C</text><text transform="translate(-151.49413453474577,-28.899051738774947)" dy="0.3em" style="text-anchor: middle; font-size: 12pt;">F</text><text transform="translate(-115.68655422769592,-101.99141709356924)" dy="0.3em" style="text-anchor: middle; font-size: 12pt;">B</text><text transform="translate(-47.65842383135158,-146.67754643347186)" dy="0.3em" style="text-anchor: middle; font-size: 12pt;">E</text><line x1="1.0497809178300706e-14" y1="-171.44223437500003" x2="1.141629427766122e-14" y2="-186.44223437500003" stroke="#404040" stroke-width="2px"></line><text x="1.2640941076808573e-14" y="-206.44223437500003" text-anchor="middle" dominant-baseline="middle" style="font-size: 10pt;">0%</text><line x1="171.44223437500003" y1="0" x2="186.44223437500003" y2="0" stroke="#404040" stroke-width="2px"></line><text x="206.44223437500003" y="0" text-anchor="middle" dominant-baseline="middle" style="font-size: 10pt;">25%</text><line x1="1.0497809178300706e-14" y1="171.44223437500003" x2="1.141629427766122e-14" y2="186.44223437500003" stroke="#404040" stroke-width="2px"></line><text x="1.2640941076808573e-14" y="206.44223437500003" text-anchor="middle" dominant-baseline="middle" style="font-size: 10pt;">50%</text><line x1="-171.44223437500003" y1="2.0995618356601413e-14" x2="-186.44223437500003" y2="2.283258855532244e-14" stroke="#404040" stroke-width="2px"></line><text x="-206.44223437500003" y="2.5281882153617146e-14" text-anchor="middle" dominant-baseline="middle" style="font-size: 10pt;">75%</text><line x1="-3.1493427534902114e-14" y1="-171.44223437500003" x2="-3.424888283298366e-14" y2="-186.44223437500003" stroke="#404040" stroke-width="2px"></line><text x="-3.7922823230425716e-14" y="-206.44223437500003" text-anchor="middle" dominant-baseline="middle" style="font-size: 10pt;">100%</text></g></svg>